<?xml version="1.0" encoding="UTF-8"?>
<svg xmlns="http://www.w3.org/2000/svg" xmlns:xlink="http://www.w3.org/1999/xlink" width="700" height="460" viewBox="0 0 700 460">
<rect x="-70" y="-46" width="840" height="552" fill="rgb(100%, 100%, 100%)" fill-opacity="1"/>
<path fill-rule="nonzero" fill="rgb(100%, 100%, 100%)" fill-opacity="1" d="M 662.351562 384.082031 C 662.351562 343.066406 654.269531 302.449219 638.574219 264.550781 C 622.878906 226.65625 599.871094 192.222656 570.863281 163.21875 C 541.859375 134.214844 507.425781 111.207031 469.53125 95.507812 C 431.636719 79.8125 391.019531 71.734375 350 71.734375 C 308.980469 71.734375 268.363281 79.8125 230.46875 95.507812 C 192.574219 111.207031 158.140625 134.214844 129.136719 163.21875 C 100.128906 192.222656 77.121094 226.65625 61.425781 264.550781 C 45.730469 302.449219 37.648438 343.066406 37.648438 384.082031 "/>
<path fill-rule="nonzero" fill="rgb(100%, 100%, 100%)" fill-opacity="1" d="M 271.914062 384.082031 C 271.914062 368.703125 268.882812 353.46875 262.996094 339.257812 C 257.109375 325.046875 248.480469 312.136719 237.605469 301.257812 C 226.730469 290.382812 213.816406 281.753906 199.605469 275.867188 C 185.394531 269.980469 170.164062 266.953125 154.78125 266.953125 C 139.398438 266.953125 124.167969 269.980469 109.957031 275.867188 C 95.746094 281.753906 82.832031 290.382812 71.957031 301.257812 C 61.078125 312.136719 52.453125 325.046875 46.566406 339.257812 C 40.679688 353.46875 37.648438 368.703125 37.648438 384.082031 "/>
<path fill-rule="nonzero" fill="rgb(100%, 100%, 100%)" fill-opacity="1" d="M 662.351562 384.082031 C 662.351562 358.445312 657.300781 333.0625 647.492188 309.375 C 637.679688 285.691406 623.300781 264.171875 605.171875 246.042969 C 587.042969 227.914062 565.523438 213.535156 541.839844 203.726562 C 518.152344 193.914062 492.769531 188.863281 467.132812 188.863281 C 441.496094 188.863281 416.109375 193.914062 392.425781 203.726562 C 368.738281 213.535156 347.21875 227.914062 329.089844 246.042969 C 310.964844 264.171875 296.582031 285.691406 286.773438 309.375 C 276.960938 333.0625 271.914062 358.445312 271.914062 384.082031 "/>
<path fill-rule="nonzero" fill="rgb(100%, 100%, 100%)" fill-opacity="1" d="M 394.480469 240.332031 C 394.480469 224.605469 388.230469 209.519531 377.109375 198.394531 C 365.988281 187.273438 350.902344 181.027344 335.171875 181.027344 C 319.445312 181.027344 304.359375 187.273438 293.238281 198.394531 C 282.113281 209.519531 275.867188 224.605469 275.867188 240.332031 C 275.867188 256.0625 282.113281 271.148438 293.238281 282.269531 C 304.359375 293.390625 319.445312 299.640625 335.171875 299.640625 C 350.902344 299.640625 365.988281 293.390625 377.109375 282.269531 C 388.230469 271.148438 394.480469 256.0625 394.480469 240.332031 Z M 394.480469 240.332031 "/>
<path fill-rule="nonzero" fill="rgb(100%, 100%, 100%)" fill-opacity="1" d="M 362.964844 310.988281 C 362.964844 306.402344 361.144531 302.007812 357.902344 298.765625 C 354.660156 295.519531 350.261719 293.699219 345.679688 293.699219 C 341.09375 293.699219 336.695312 295.519531 333.453125 298.765625 C 330.210938 302.007812 328.390625 306.402344 328.390625 310.988281 C 328.390625 315.574219 330.210938 319.972656 333.453125 323.214844 C 336.695312 326.457031 341.09375 328.277344 345.679688 328.277344 C 350.261719 328.277344 354.660156 326.457031 357.902344 323.214844 C 361.144531 319.972656 362.964844 315.574219 362.964844 310.988281 Z M 362.964844 310.988281 "/>
<path fill-rule="nonzero" fill="rgb(100%, 100%, 100%)" fill-opacity="1" d="M 662.351562 384.082031 C 662.351562 343.066406 654.269531 302.449219 638.574219 264.550781 C 622.878906 226.65625 599.871094 192.222656 570.863281 163.21875 C 541.859375 134.214844 507.425781 111.207031 469.53125 95.507812 C 431.636719 79.8125 391.019531 71.734375 350 71.734375 C 308.980469 71.734375 268.363281 79.8125 230.46875 95.507812 C 192.574219 111.207031 158.140625 134.214844 129.136719 163.21875 C 100.128906 192.222656 77.121094 226.65625 61.425781 264.550781 C 45.730469 302.449219 37.648438 343.066406 37.648438 384.082031 "/>
<path fill-rule="nonzero" fill="rgb(100%, 100%, 100%)" fill-opacity="1" d="M 271.914062 384.082031 C 271.914062 368.703125 268.882812 353.46875 262.996094 339.257812 C 257.109375 325.046875 248.480469 312.136719 237.605469 301.257812 C 226.730469 290.382812 213.816406 281.753906 199.605469 275.867188 C 185.394531 269.980469 170.164062 266.953125 154.78125 266.953125 C 139.398438 266.953125 124.167969 269.980469 109.957031 275.867188 C 95.746094 281.753906 82.832031 290.382812 71.957031 301.257812 C 61.078125 312.136719 52.453125 325.046875 46.566406 339.257812 C 40.679688 353.46875 37.648438 368.703125 37.648438 384.082031 "/>
<path fill-rule="nonzero" fill="rgb(100%, 100%, 100%)" fill-opacity="1" d="M 662.351562 384.082031 C 662.351562 358.445312 657.300781 333.0625 647.492188 309.375 C 637.679688 285.691406 623.300781 264.171875 605.171875 246.042969 C 587.042969 227.914062 565.523438 213.535156 541.839844 203.726562 C 518.152344 193.914062 492.769531 188.863281 467.132812 188.863281 C 441.496094 188.863281 416.109375 193.914062 392.425781 203.726562 C 368.738281 213.535156 347.21875 227.914062 329.089844 246.042969 C 310.964844 264.171875 296.582031 285.691406 286.773438 309.375 C 276.960938 333.0625 271.914062 358.445312 271.914062 384.082031 "/>
<path fill-rule="nonzero" fill="rgb(100%, 100%, 100%)" fill-opacity="1" d="M 394.480469 240.332031 C 394.480469 224.605469 388.230469 209.519531 377.109375 198.394531 C 365.988281 187.273438 350.902344 181.027344 335.171875 181.027344 C 319.445312 181.027344 304.359375 187.273438 293.238281 198.394531 C 282.113281 209.519531 275.867188 224.605469 275.867188 240.332031 C 275.867188 256.0625 282.113281 271.148438 293.238281 282.269531 C 304.359375 293.390625 319.445312 299.640625 335.171875 299.640625 C 350.902344 299.640625 365.988281 293.390625 377.109375 282.269531 C 388.230469 271.148438 394.480469 256.0625 394.480469 240.332031 Z M 394.480469 240.332031 "/>
<path fill-rule="nonzero" fill="rgb(100%, 100%, 100%)" fill-opacity="1" d="M 362.964844 310.988281 C 362.964844 306.402344 361.144531 302.007812 357.902344 298.765625 C 354.660156 295.519531 350.261719 293.699219 345.679688 293.699219 C 341.09375 293.699219 336.695312 295.519531 333.453125 298.765625 C 330.210938 302.007812 328.390625 306.402344 328.390625 310.988281 C 328.390625 315.574219 330.210938 319.972656 333.453125 323.214844 C 336.695312 326.457031 341.09375 328.277344 345.679688 328.277344 C 350.261719 328.277344 354.660156 326.457031 357.902344 323.214844 C 361.144531 319.972656 362.964844 315.574219 362.964844 310.988281 Z M 362.964844 310.988281 "/>
<path fill="none" stroke-width="0.0446429" stroke-linecap="butt" stroke-linejoin="miter" stroke="rgb(81.568627%, 32.941176%, 33.72549%)" stroke-opacity="1" stroke-miterlimit="10" d="M 0.569622 1.840901 C 0.569622 2.042297 0.489584 2.23549 0.347166 2.377958 C 0.204748 2.520376 0.0115555 2.600364 -0.189891 2.600364 C -0.391287 2.600364 -0.584479 2.520376 -0.726898 2.377958 C -0.869366 2.23549 -0.949354 2.042297 -0.949354 1.840901 C -0.949354 1.639455 -0.869366 1.446262 -0.726898 1.303844 C -0.584479 1.161426 -0.391287 1.081388 -0.189891 1.081388 C 0.0115555 1.081388 0.204748 1.161426 0.347166 1.303844 C 0.489584 1.446262 0.569622 1.639455 0.569622 1.840901 Z M 0.569622 1.840901 " transform="matrix(78.087649, 0, 0, -78.087649, 350, 384.083665)"/>
<path fill="none" stroke-width="0.0446429" stroke-linecap="butt" stroke-linejoin="miter" stroke="rgb(81.568627%, 32.941176%, 33.72549%)" stroke-opacity="1" stroke-miterlimit="10" d="M 0.166029 0.936068 C 0.166029 0.994797 0.142718 1.051073 0.101198 1.092593 C 0.0596785 1.134163 0.0033516 1.157474 -0.0553265 1.157474 C -0.114055 1.157474 -0.170381 1.134163 -0.211901 1.092593 C -0.253421 1.051073 -0.276732 0.994797 -0.276732 0.936068 C -0.276732 0.87734 -0.253421 0.821013 -0.211901 0.779494 C -0.170381 0.737974 -0.114055 0.714663 -0.0553265 0.714663 C 0.0033516 0.714663 0.0596785 0.737974 0.101198 0.779494 C 0.142718 0.821013 0.166029 0.87734 0.166029 0.936068 Z M 0.166029 0.936068 " transform="matrix(78.087649, 0, 0, -78.087649, 350, 384.083665)"/>
<path fill="none" stroke-width="0.0446429" stroke-linecap="butt" stroke-linejoin="miter" stroke="rgb(81.568627%, 32.941176%, 33.72549%)" stroke-opacity="1" stroke-miterlimit="10" d="M 0.569622 1.840901 C 0.569622 2.042297 0.489584 2.23549 0.347166 2.377958 C 0.204748 2.520376 0.0115555 2.600364 -0.189891 2.600364 C -0.391287 2.600364 -0.584479 2.520376 -0.726898 2.377958 C -0.869366 2.23549 -0.949354 2.042297 -0.949354 1.840901 C -0.949354 1.639455 -0.869366 1.446262 -0.726898 1.303844 C -0.584479 1.161426 -0.391287 1.081388 -0.189891 1.081388 C 0.0115555 1.081388 0.204748 1.161426 0.347166 1.303844 C 0.489584 1.446262 0.569622 1.639455 0.569622 1.840901 Z M 0.569622 1.840901 " transform="matrix(78.087649, 0, 0, -78.087649, 350, 384.083665)"/>
<path fill="none" stroke-width="0.0446429" stroke-linecap="butt" stroke-linejoin="miter" stroke="rgb(81.568627%, 32.941176%, 33.72549%)" stroke-opacity="1" stroke-miterlimit="10" d="M 0.166029 0.936068 C 0.166029 0.994797 0.142718 1.051073 0.101198 1.092593 C 0.0596785 1.134163 0.0033516 1.157474 -0.0553265 1.157474 C -0.114055 1.157474 -0.170381 1.134163 -0.211901 1.092593 C -0.253421 1.051073 -0.276732 0.994797 -0.276732 0.936068 C -0.276732 0.87734 -0.253421 0.821013 -0.211901 0.779494 C -0.170381 0.737974 -0.114055 0.714663 -0.0553265 0.714663 C 0.0033516 0.714663 0.0596785 0.737974 0.101198 0.779494 C 0.142718 0.821013 0.166029 0.87734 0.166029 0.936068 Z M 0.166029 0.936068 " transform="matrix(78.087649, 0, 0, -78.087649, 350, 384.083665)"/>
<path fill="none" stroke-width="0.0267857" stroke-linecap="butt" stroke-linejoin="miter" stroke="rgb(0%, 0%, 0%)" stroke-opacity="1" stroke-miterlimit="10" d="M 4.000012 0.0000209263 C 4.000012 0.525272 3.896513 1.045421 3.695517 1.530753 C 3.494521 2.016035 3.19988 2.456996 2.828402 2.828423 C 2.456975 3.199851 2.016014 3.494492 1.530732 3.695538 C 1.04545 3.896534 0.525301 3.999983 0 3.999983 C -0.525301 3.999983 -1.04545 3.896534 -1.530732 3.695538 C -2.016014 3.494492 -2.456975 3.199851 -2.828402 2.828423 C -3.19988 2.456996 -3.494521 2.016035 -3.695517 1.530753 C -3.896513 1.045421 -4.000012 0.525272 -4.000012 0.0000209263 " transform="matrix(78.087649, 0, 0, -78.087649, 350, 384.083665)"/>
<path fill="none" stroke-width="0.0267857" stroke-linecap="butt" stroke-linejoin="miter" stroke="rgb(0%, 0%, 0%)" stroke-opacity="1" stroke-miterlimit="10" d="M -0.999978 0.0000209263 C -0.999978 0.196965 -1.038797 0.392058 -1.114183 0.574045 C -1.189569 0.756032 -1.300072 0.921361 -1.439338 1.060678 C -1.578605 1.199945 -1.743984 1.310447 -1.925971 1.385833 C -2.107958 1.46122 -2.303001 1.499988 -2.499995 1.499988 C -2.696989 1.499988 -2.892033 1.46122 -3.07402 1.385833 C -3.256007 1.310447 -3.421386 1.199945 -3.560652 1.060678 C -3.699969 0.921361 -3.810422 0.756032 -3.885808 0.574045 C -3.961194 0.392058 -4.000012 0.196965 -4.000012 0.0000209263 " transform="matrix(78.087649, 0, 0, -78.087649, 350, 384.083665)"/>
<path fill="none" stroke-width="0.0267857" stroke-linecap="butt" stroke-linejoin="miter" stroke="rgb(0%, 0%, 0%)" stroke-opacity="1" stroke-miterlimit="10" d="M 4.000012 0.0000209263 C 4.000012 0.328328 3.935331 0.653383 3.809721 0.956728 C 3.684061 1.260023 3.499923 1.535605 3.267762 1.767766 C 3.035601 1.999927 2.76002 2.184065 2.456725 2.309675 C 2.15338 2.435335 1.828324 2.500016 1.500017 2.500016 C 1.17171 2.500016 0.846605 2.435335 0.54331 2.309675 C 0.239965 2.184065 -0.035617 1.999927 -0.267778 1.767766 C -0.499889 1.535605 -0.684077 1.260023 -0.809687 0.956728 C -0.935347 0.653383 -0.999978 0.328328 -0.999978 0.0000209263 " transform="matrix(78.087649, 0, 0, -78.087649, 350, 384.083665)"/>
<path fill="none" stroke-width="0.0133929" stroke-linecap="butt" stroke-linejoin="miter" stroke="rgb(50.196078%, 50.196078%, 50.196078%)" stroke-opacity="1" stroke-miterlimit="10" d="M -4.000012 0.0000209263 C -1.333337 0.0000209263 1.333337 0.0000209263 4.000012 0.0000209263 " transform="matrix(78.087649, 0, 0, -78.087649, 350, 384.083665)"/>
<path fill="none" stroke-width="0.0133929" stroke-linecap="butt" stroke-linejoin="miter" stroke="rgb(50.196078%, 50.196078%, 50.196078%)" stroke-opacity="1" stroke-miterlimit="10" d="M -4.000012 0.0000209263 C -2.999984 0.0000209263 -2.000006 0.0000209263 -0.999978 0.0000209263 " transform="matrix(78.087649, 0, 0, -78.087649, 350, 384.083665)"/>
<path fill="none" stroke-width="0.0133929" stroke-linecap="butt" stroke-linejoin="miter" stroke="rgb(50.196078%, 50.196078%, 50.196078%)" stroke-opacity="1" stroke-miterlimit="10" d="M -0.999978 0.0000209263 C 0.666669 0.0000209263 2.333316 0.0000209263 4.000012 0.0000209263 " transform="matrix(78.087649, 0, 0, -78.087649, 350, 384.083665)"/>
<path fill="none" stroke-width="0.0267857" stroke-linecap="butt" stroke-linejoin="miter" stroke="rgb(0%, 0%, 0%)" stroke-opacity="1" stroke-miterlimit="10" d="M 4.000012 0.0000209263 C 4.000012 0.525272 3.896513 1.045421 3.695517 1.530753 C 3.494521 2.016035 3.19988 2.456996 2.828402 2.828423 C 2.456975 3.199851 2.016014 3.494492 1.530732 3.695538 C 1.04545 3.896534 0.525301 3.999983 0 3.999983 C -0.525301 3.999983 -1.04545 3.896534 -1.530732 3.695538 C -2.016014 3.494492 -2.456975 3.199851 -2.828402 2.828423 C -3.19988 2.456996 -3.494521 2.016035 -3.695517 1.530753 C -3.896513 1.045421 -4.000012 0.525272 -4.000012 0.0000209263 " transform="matrix(78.087649, 0, 0, -78.087649, 350, 384.083665)"/>
<path fill="none" stroke-width="0.0267857" stroke-linecap="butt" stroke-linejoin="miter" stroke="rgb(0%, 0%, 0%)" stroke-opacity="1" stroke-miterlimit="10" d="M -0.999978 0.0000209263 C -0.999978 0.196965 -1.038797 0.392058 -1.114183 0.574045 C -1.189569 0.756032 -1.300072 0.921361 -1.439338 1.060678 C -1.578605 1.199945 -1.743984 1.310447 -1.925971 1.385833 C -2.107958 1.46122 -2.303001 1.499988 -2.499995 1.499988 C -2.696989 1.499988 -2.892033 1.46122 -3.07402 1.385833 C -3.256007 1.310447 -3.421386 1.199945 -3.560652 1.060678 C -3.699969 0.921361 -3.810422 0.756032 -3.885808 0.574045 C -3.961194 0.392058 -4.000012 0.196965 -4.000012 0.0000209263 " transform="matrix(78.087649, 0, 0, -78.087649, 350, 384.083665)"/>
<path fill="none" stroke-width="0.0267857" stroke-linecap="butt" stroke-linejoin="miter" stroke="rgb(0%, 0%, 0%)" stroke-opacity="1" stroke-miterlimit="10" d="M 4.000012 0.0000209263 C 4.000012 0.328328 3.935331 0.653383 3.809721 0.956728 C 3.684061 1.260023 3.499923 1.535605 3.267762 1.767766 C 3.035601 1.999927 2.76002 2.184065 2.456725 2.309675 C 2.15338 2.435335 1.828324 2.500016 1.500017 2.500016 C 1.17171 2.500016 0.846605 2.435335 0.54331 2.309675 C 0.239965 2.184065 -0.035617 1.999927 -0.267778 1.767766 C -0.499889 1.535605 -0.684077 1.260023 -0.809687 0.956728 C -0.935347 0.653383 -0.999978 0.328328 -0.999978 0.0000209263 " transform="matrix(78.087649, 0, 0, -78.087649, 350, 384.083665)"/>
<path fill="none" stroke-width="0.0133929" stroke-linecap="butt" stroke-linejoin="miter" stroke="rgb(50.196078%, 50.196078%, 50.196078%)" stroke-opacity="1" stroke-miterlimit="10" d="M -4.000012 0.0000209263 C -1.333337 0.0000209263 1.333337 0.0000209263 4.000012 0.0000209263 " transform="matrix(78.087649, 0, 0, -78.087649, 350, 384.083665)"/>
<path fill="none" stroke-width="0.0133929" stroke-linecap="butt" stroke-linejoin="miter" stroke="rgb(50.196078%, 50.196078%, 50.196078%)" stroke-opacity="1" stroke-miterlimit="10" d="M -4.000012 0.0000209263 C -2.999984 0.0000209263 -2.000006 0.0000209263 -0.999978 0.0000209263 " transform="matrix(78.087649, 0, 0, -78.087649, 350, 384.083665)"/>
<path fill="none" stroke-width="0.0133929" stroke-linecap="butt" stroke-linejoin="miter" stroke="rgb(50.196078%, 50.196078%, 50.196078%)" stroke-opacity="1" stroke-miterlimit="10" d="M -0.999978 0.0000209263 C 0.666669 0.0000209263 2.333316 0.0000209263 4.000012 0.0000209263 " transform="matrix(78.087649, 0, 0, -78.087649, 350, 384.083665)"/>
<path fill-rule="nonzero" fill="rgb(0%, 0%, 0%)" fill-opacity="1" d="M 41.832031 384.082031 C 41.832031 382.972656 41.390625 381.910156 40.605469 381.125 C 39.824219 380.339844 38.757812 379.902344 37.648438 379.902344 C 36.539062 379.902344 35.476562 380.339844 34.691406 381.125 C 33.90625 381.910156 33.464844 382.972656 33.464844 384.082031 C 33.464844 385.191406 33.90625 386.257812 34.691406 387.042969 C 35.476562 387.828125 36.539062 388.265625 37.648438 388.265625 C 38.757812 388.265625 39.824219 387.828125 40.605469 387.042969 C 41.390625 386.257812 41.832031 385.191406 41.832031 384.082031 Z M 41.832031 384.082031 "/>
<path fill-rule="nonzero" fill="rgb(0%, 0%, 0%)" fill-opacity="1" d="M 276.09375 384.082031 C 276.09375 382.972656 275.65625 381.910156 274.871094 381.125 C 274.085938 380.339844 273.023438 379.902344 271.914062 379.902344 C 270.804688 379.902344 269.738281 380.339844 268.953125 381.125 C 268.167969 381.910156 267.730469 382.972656 267.730469 384.082031 C 267.730469 385.191406 268.167969 386.257812 268.953125 387.042969 C 269.738281 387.828125 270.804688 388.265625 271.914062 388.265625 C 273.023438 388.265625 274.085938 387.828125 274.871094 387.042969 C 275.65625 386.257812 276.09375 385.191406 276.09375 384.082031 Z M 276.09375 384.082031 "/>
<path fill-rule="nonzero" fill="rgb(0%, 0%, 0%)" fill-opacity="1" d="M 666.535156 384.082031 C 666.535156 382.972656 666.09375 381.910156 665.308594 381.125 C 664.523438 380.339844 663.460938 379.902344 662.351562 379.902344 C 661.242188 379.902344 660.175781 380.339844 659.394531 381.125 C 658.609375 381.910156 658.167969 382.972656 658.167969 384.082031 C 658.167969 385.191406 658.609375 386.257812 659.394531 387.042969 C 660.175781 387.828125 661.242188 388.265625 662.351562 388.265625 C 663.460938 388.265625 664.523438 387.828125 665.308594 387.042969 C 666.09375 386.257812 666.535156 385.191406 666.535156 384.082031 Z M 666.535156 384.082031 "/>
<path fill-rule="nonzero" fill="rgb(0%, 0%, 0%)" fill-opacity="1" d="M 41.832031 384.082031 C 41.832031 382.972656 41.390625 381.910156 40.605469 381.125 C 39.824219 380.339844 38.757812 379.902344 37.648438 379.902344 C 36.539062 379.902344 35.476562 380.339844 34.691406 381.125 C 33.90625 381.910156 33.464844 382.972656 33.464844 384.082031 C 33.464844 385.191406 33.90625 386.257812 34.691406 387.042969 C 35.476562 387.828125 36.539062 388.265625 37.648438 388.265625 C 38.757812 388.265625 39.824219 387.828125 40.605469 387.042969 C 41.390625 386.257812 41.832031 385.191406 41.832031 384.082031 Z M 41.832031 384.082031 "/>
<path fill-rule="nonzero" fill="rgb(0%, 0%, 0%)" fill-opacity="1" d="M 276.09375 384.082031 C 276.09375 382.972656 275.65625 381.910156 274.871094 381.125 C 274.085938 380.339844 273.023438 379.902344 271.914062 379.902344 C 270.804688 379.902344 269.738281 380.339844 268.953125 381.125 C 268.167969 381.910156 267.730469 382.972656 267.730469 384.082031 C 267.730469 385.191406 268.167969 386.257812 268.953125 387.042969 C 269.738281 387.828125 270.804688 388.265625 271.914062 388.265625 C 273.023438 388.265625 274.085938 387.828125 274.871094 387.042969 C 275.65625 386.257812 276.09375 385.191406 276.09375 384.082031 Z M 276.09375 384.082031 "/>
<path fill-rule="nonzero" fill="rgb(0%, 0%, 0%)" fill-opacity="1" d="M 666.535156 384.082031 C 666.535156 382.972656 666.09375 381.910156 665.308594 381.125 C 664.523438 380.339844 663.460938 379.902344 662.351562 379.902344 C 661.242188 379.902344 660.175781 380.339844 659.394531 381.125 C 658.609375 381.910156 658.167969 382.972656 658.167969 384.082031 C 658.167969 385.191406 658.609375 386.257812 659.394531 387.042969 C 660.175781 387.828125 661.242188 388.265625 662.351562 388.265625 C 663.460938 388.265625 664.523438 387.828125 665.308594 387.042969 C 666.09375 386.257812 666.535156 385.191406 666.535156 384.082031 Z M 666.535156 384.082031 "/>
</svg>
