<?xml version="1.0" encoding="UTF-8"?>
<svg xmlns="http://www.w3.org/2000/svg" xmlns:xlink="http://www.w3.org/1999/xlink" width="700" height="460" viewBox="0 0 700 460">
<rect x="-70" y="-46" width="840" height="552" fill="rgb(100%, 100%, 100%)" fill-opacity="1"/>
<path fill-rule="nonzero" fill="rgb(100%, 100%, 100%)" fill-opacity="1" stroke-width="0.0258621" stroke-linecap="butt" stroke-linejoin="miter" stroke="rgb(0%, 0%, 0%)" stroke-opacity="1" stroke-miterlimit="10" d="M 5.000003 0 C 5.000003 1.06087 4.473241 2.078261 3.535535 2.828411 C 2.597829 3.578561 1.32609 4 0.00000270763 4 C -1.326084 4 -2.597823 3.578561 -3.53553 2.828411 C -4.473236 2.078261 -4.999997 1.06087 -4.999997 0 C -4.999997 -1.06087 -4.473236 -2.078261 -3.53553 -2.828411 C -2.597823 -3.578561 -1.326084 -4 0.00000270763 -4 C 1.32609 -4 2.597829 -3.578561 3.535535 -2.828411 C 4.473241 -2.078261 5.000003 -1.06087 5.000003 0 Z M 5.000003 0 " transform="matrix(52.109375, 0, 0, -52.109375, 358.702984, 230)"/>
<path fill="none" stroke-width="0.0258621" stroke-linecap="butt" stroke-linejoin="miter" stroke="rgb(0%, 0%, 0%)" stroke-opacity="1" stroke-miterlimit="10" d="M -7.227209 0 C -2.520387 0 2.18636 0 6.893181 0 " transform="matrix(52.109375, 0, 0, -52.109375, 358.702984, 230)"/>
<path fill="none" stroke-width="0.0431034" stroke-linecap="butt" stroke-linejoin="miter" stroke="rgb(81.568627%, 32.941176%, 33.72549%)" stroke-opacity="1" stroke-miterlimit="10" d="M -4.999997 0 C -4.333356 0 -3.666639 0 -2.999997 0 " transform="matrix(52.109375, 0, 0, -52.109375, 358.702984, 230)"/>
<path fill="none" stroke-width="0.0431034" stroke-linecap="butt" stroke-linejoin="miter" stroke="rgb(81.568627%, 32.941176%, 33.72549%)" stroke-opacity="1" stroke-miterlimit="10" d="M -4.999997 0 C -2.333356 0 0.333361 0 3.000003 0 " transform="matrix(52.109375, 0, 0, -52.109375, 358.702984, 230)"/>
<path fill-rule="nonzero" fill="rgb(0%, 0%, 0%)" fill-opacity="1" d="M 205.070312 230 C 205.070312 229.285156 204.785156 228.597656 204.28125 228.09375 C 203.773438 227.589844 203.089844 227.304688 202.375 227.304688 C 201.660156 227.304688 200.972656 227.589844 200.46875 228.09375 C 199.964844 228.597656 199.679688 229.285156 199.679688 230 C 199.679688 230.714844 199.964844 231.402344 200.46875 231.90625 C 200.972656 232.410156 201.660156 232.695312 202.375 232.695312 C 203.089844 232.695312 203.773438 232.410156 204.28125 231.90625 C 204.785156 231.402344 205.070312 230.714844 205.070312 230 Z M 205.070312 230 "/>
<path fill-rule="nonzero" fill="rgb(0%, 0%, 0%)" fill-opacity="1" d="M 199.722656 215.714844 C 200.144531 215.714844 200.566406 215.714844 200.988281 215.714844 C 201.96875 215.714844 202.074219 215.921875 202.074219 216.300781 C 202.074219 216.390625 202.074219 216.550781 201.980469 216.941406 C 201.957031 217.007812 201.941406 217.058594 201.941406 217.085938 C 201.941406 217.1875 202.019531 217.242188 202.101562 217.242188 C 202.230469 217.242188 202.230469 217.203125 202.296875 216.96875 C 202.535156 216.023438 202.773438 215.078125 203.011719 214.132812 C 203.050781 213.992188 203.050781 213.964844 203.050781 213.925781 C 203.050781 213.898438 203.027344 213.78125 202.894531 213.78125 C 202.765625 213.78125 202.753906 213.847656 202.699219 214.054688 C 202.425781 215.074219 202.125 215.308594 201.015625 215.308594 C 200.621094 215.308594 200.222656 215.308594 199.828125 215.308594 C 200.105469 214.203125 200.386719 213.097656 200.664062 211.992188 C 200.78125 211.535156 200.792969 211.484375 201.367188 211.484375 C 201.941406 211.484375 202.515625 211.484375 203.089844 211.484375 C 204.699219 211.484375 204.996094 211.914062 204.996094 212.921875 C 204.996094 213.21875 204.996094 213.273438 204.957031 213.625 C 204.933594 213.796875 204.933594 213.820312 204.933594 213.859375 C 204.933594 213.925781 204.972656 214.015625 205.089844 214.015625 C 205.234375 214.015625 205.246094 213.9375 205.273438 213.691406 C 205.359375 212.9375 205.445312 212.183594 205.53125 211.433594 C 205.570312 211.078125 205.507812 211.078125 205.179688 211.078125 C 203.046875 211.078125 200.917969 211.078125 198.785156 211.078125 C 198.523438 211.078125 198.394531 211.078125 198.394531 211.339844 C 198.394531 211.484375 198.511719 211.484375 198.757812 211.484375 C 199.242188 211.484375 199.605469 211.484375 199.605469 211.71875 C 199.605469 211.773438 199.605469 211.796875 199.542969 212.03125 C 198.96875 214.335938 198.394531 216.636719 197.816406 218.9375 C 197.6875 219.445312 197.660156 219.550781 196.628906 219.550781 C 196.410156 219.550781 196.265625 219.550781 196.265625 219.800781 C 196.265625 219.957031 196.421875 219.957031 196.460938 219.957031 C 196.839844 219.957031 197.804688 219.917969 198.183594 219.917969 C 198.613281 219.917969 199.699219 219.957031 200.128906 219.957031 C 200.246094 219.957031 200.402344 219.957031 200.402344 219.707031 C 200.402344 219.605469 200.324219 219.578125 200.324219 219.566406 C 200.285156 219.550781 200.257812 219.550781 199.957031 219.550781 C 199.671875 219.550781 199.605469 219.550781 199.28125 219.523438 C 198.902344 219.484375 198.863281 219.433594 198.863281 219.265625 C 198.863281 219.238281 198.863281 219.160156 198.914062 218.964844 C 199.183594 217.878906 199.453125 216.796875 199.722656 215.714844 Z M 199.722656 215.714844 "/>
<path fill-rule="nonzero" fill="rgb(0%, 0%, 0%)" fill-opacity="1" d="M 207.222656 216.101562 C 207.222656 215.855469 207.207031 215.847656 206.949219 215.847656 C 206.363281 216.421875 205.535156 216.433594 205.160156 216.433594 C 205.160156 216.542969 205.160156 216.652344 205.160156 216.761719 C 205.378906 216.761719 205.980469 216.761719 206.484375 216.503906 C 206.484375 218.058594 206.484375 219.613281 206.484375 221.164062 C 206.484375 221.464844 206.484375 221.585938 205.570312 221.585938 C 205.453125 221.585938 205.339844 221.585938 205.222656 221.585938 C 205.222656 221.695312 205.222656 221.804688 205.222656 221.914062 C 205.386719 221.90625 206.511719 221.878906 206.847656 221.878906 C 207.132812 221.878906 208.285156 221.90625 208.484375 221.914062 C 208.484375 221.804688 208.484375 221.695312 208.484375 221.585938 C 208.367188 221.585938 208.253906 221.585938 208.136719 221.585938 C 207.222656 221.585938 207.222656 221.464844 207.222656 221.164062 C 207.222656 219.476562 207.222656 217.789062 207.222656 216.101562 Z M 207.222656 216.101562 "/>
<path fill-rule="nonzero" fill="rgb(0%, 0%, 0%)" fill-opacity="1" d="M 517.726562 230 C 517.726562 229.285156 517.441406 228.597656 516.9375 228.09375 C 516.429688 227.589844 515.746094 227.304688 515.03125 227.304688 C 514.316406 227.304688 513.628906 227.589844 513.125 228.09375 C 512.621094 228.597656 512.335938 229.285156 512.335938 230 C 512.335938 230.714844 512.621094 231.402344 513.125 231.90625 C 513.628906 232.410156 514.316406 232.695312 515.03125 232.695312 C 515.746094 232.695312 516.429688 232.410156 516.9375 231.90625 C 517.441406 231.402344 517.726562 230.714844 517.726562 230 Z M 517.726562 230 "/>
<path fill-rule="nonzero" fill="rgb(0%, 0%, 0%)" fill-opacity="1" d="M 526.574219 229.21875 C 527 229.21875 527.421875 229.21875 527.84375 229.21875 C 528.820312 229.21875 528.925781 229.425781 528.925781 229.804688 C 528.925781 229.894531 528.925781 230.050781 528.835938 230.445312 C 528.808594 230.507812 528.796875 230.5625 528.796875 230.585938 C 528.796875 230.691406 528.875 230.742188 528.953125 230.742188 C 529.082031 230.742188 529.082031 230.703125 529.148438 230.46875 C 529.386719 229.527344 529.625 228.582031 529.867188 227.636719 C 529.90625 227.492188 529.90625 227.46875 529.90625 227.429688 C 529.90625 227.402344 529.878906 227.285156 529.75 227.285156 C 529.617188 227.285156 529.605469 227.351562 529.550781 227.558594 C 529.277344 228.578125 528.976562 228.8125 527.867188 228.8125 C 527.472656 228.8125 527.078125 228.8125 526.679688 228.8125 C 526.960938 227.707031 527.238281 226.601562 527.515625 225.496094 C 527.632812 225.039062 527.648438 224.988281 528.222656 224.988281 C 528.796875 224.988281 529.371094 224.988281 529.945312 224.988281 C 531.550781 224.988281 531.851562 225.417969 531.851562 226.421875 C 531.851562 226.722656 531.851562 226.777344 531.808594 227.128906 C 531.785156 227.296875 531.785156 227.324219 531.785156 227.363281 C 531.785156 227.429688 531.824219 227.519531 531.941406 227.519531 C 532.085938 227.519531 532.097656 227.441406 532.125 227.195312 C 532.210938 226.441406 532.296875 225.6875 532.386719 224.933594 C 532.425781 224.582031 532.359375 224.582031 532.03125 224.582031 C 529.902344 224.582031 527.769531 224.582031 525.636719 224.582031 C 525.375 224.582031 525.246094 224.582031 525.246094 224.84375 C 525.246094 224.988281 525.363281 224.988281 525.609375 224.988281 C 526.09375 224.988281 526.457031 224.988281 526.457031 225.222656 C 526.457031 225.273438 526.457031 225.300781 526.394531 225.535156 C 525.820312 227.835938 525.246094 230.140625 524.671875 232.441406 C 524.539062 232.949219 524.515625 233.054688 523.484375 233.054688 C 523.261719 233.054688 523.117188 233.054688 523.117188 233.300781 C 523.117188 233.460938 523.273438 233.460938 523.3125 233.460938 C 523.691406 233.460938 524.65625 233.421875 525.035156 233.421875 C 525.464844 233.421875 526.550781 233.460938 526.980469 233.460938 C 527.097656 233.460938 527.253906 233.460938 527.253906 233.210938 C 527.253906 233.105469 527.175781 233.082031 527.175781 233.066406 C 527.136719 233.054688 527.113281 233.054688 526.8125 233.054688 C 526.523438 233.054688 526.457031 233.054688 526.132812 233.027344 C 525.753906 232.988281 525.714844 232.9375 525.714844 232.765625 C 525.714844 232.742188 525.714844 232.664062 525.765625 232.46875 C 526.035156 231.382812 526.304688 230.300781 526.574219 229.21875 Z M 526.574219 229.21875 "/>
<path fill-rule="nonzero" fill="rgb(0%, 0%, 0%)" fill-opacity="1" d="M 535.628906 233.753906 C 535.527344 233.753906 535.421875 233.753906 535.320312 233.753906 C 535.292969 233.957031 535.199219 234.496094 535.082031 234.585938 C 535.007812 234.640625 534.304688 234.640625 534.175781 234.640625 C 533.617188 234.640625 533.054688 234.640625 532.496094 234.640625 C 533.453125 233.789062 533.773438 233.535156 534.324219 233.105469 C 535 232.566406 535.628906 232 535.628906 231.132812 C 535.628906 230.027344 534.660156 229.351562 533.492188 229.351562 C 532.359375 229.351562 531.589844 230.144531 531.589844 230.984375 C 531.589844 231.453125 531.984375 231.496094 532.074219 231.496094 C 532.292969 231.496094 532.558594 231.34375 532.558594 231.011719 C 532.558594 230.847656 532.496094 230.527344 532.019531 230.527344 C 532.304688 229.878906 532.925781 229.679688 533.355469 229.679688 C 534.269531 229.679688 534.742188 230.390625 534.742188 231.132812 C 534.742188 231.925781 534.175781 232.558594 533.882812 232.886719 C 533.148438 233.609375 532.417969 234.335938 531.683594 235.0625 C 531.589844 235.144531 531.589844 235.160156 531.589844 235.417969 C 532.84375 235.417969 534.101562 235.417969 535.355469 235.417969 C 535.445312 234.863281 535.539062 234.308594 535.628906 233.753906 Z M 535.628906 233.753906 "/>
<path fill-rule="nonzero" fill="rgb(0%, 0%, 0%)" fill-opacity="1" d="M 100.851562 230 C 100.851562 229.285156 100.566406 228.597656 100.0625 228.09375 C 99.554688 227.589844 98.871094 227.304688 98.15625 227.304688 C 97.441406 227.304688 96.753906 227.589844 96.25 228.09375 C 95.746094 228.597656 95.460938 229.285156 95.460938 230 C 95.460938 230.714844 95.746094 231.402344 96.25 231.90625 C 96.753906 232.410156 97.441406 232.695312 98.15625 232.695312 C 98.871094 232.695312 99.554688 232.410156 100.0625 231.90625 C 100.566406 231.402344 100.851562 230.714844 100.851562 230 Z M 100.851562 230 "/>
<path fill-rule="nonzero" fill="rgb(0%, 0%, 0%)" fill-opacity="1" d="M 84.183594 230.332031 C 84.921875 230.332031 85.664062 230.332031 86.402344 230.332031 C 88.253906 230.332031 90.070312 228.976562 90.070312 227.511719 C 90.070312 226.507812 89.207031 225.542969 87.5 225.542969 C 86.089844 225.542969 84.679688 225.542969 83.269531 225.542969 C 83.019531 225.542969 82.878906 225.542969 82.878906 225.789062 C 82.878906 225.945312 82.996094 225.945312 83.257812 225.945312 C 83.425781 225.945312 83.660156 225.960938 83.816406 225.972656 C 84.027344 226 84.105469 226.039062 84.105469 226.183594 C 84.105469 226.234375 84.089844 226.273438 84.050781 226.429688 C 83.46875 228.765625 82.886719 231.101562 82.304688 233.441406 C 82.171875 233.949219 82.148438 234.054688 81.117188 234.054688 C 80.894531 234.054688 80.75 234.054688 80.75 234.300781 C 80.75 234.457031 80.90625 234.457031 80.945312 234.457031 C 81.3125 234.457031 82.238281 234.417969 82.605469 234.417969 C 82.878906 234.417969 83.164062 234.429688 83.4375 234.429688 C 83.726562 234.429688 84.011719 234.457031 84.289062 234.457031 C 84.378906 234.457031 84.546875 234.457031 84.546875 234.195312 C 84.546875 234.054688 84.429688 234.054688 84.183594 234.054688 C 83.699219 234.054688 83.335938 234.054688 83.335938 233.816406 C 83.335938 233.738281 83.359375 233.675781 83.375 233.597656 C 83.644531 232.507812 83.914062 231.421875 84.183594 230.332031 Z M 85.121094 226.441406 C 85.242188 225.984375 85.265625 225.945312 85.828125 225.945312 C 86.246094 225.945312 86.664062 225.945312 87.082031 225.945312 C 88.164062 225.945312 88.855469 226.300781 88.855469 227.199219 C 88.855469 227.710938 88.59375 228.832031 88.085938 229.300781 C 87.433594 229.890625 86.648438 229.992188 86.074219 229.992188 C 85.460938 229.992188 84.847656 229.992188 84.234375 229.992188 C 84.53125 228.808594 84.828125 227.625 85.121094 226.441406 Z M 85.121094 226.441406 "/>
</svg>
