<?xml version="1.0" encoding="UTF-8"?>
<svg xmlns="http://www.w3.org/2000/svg" xmlns:xlink="http://www.w3.org/1999/xlink" width="700" height="460" viewBox="0 0 700 460">
<rect x="-70" y="-46" width="840" height="552" fill="rgb(100%, 100%, 100%)" fill-opacity="1"/>
<path fill-rule="nonzero" fill="rgb(100%, 100%, 100%)" fill-opacity="1" d="M 209.585938 387.046875 C 209.585938 377.035156 209.585938 367.023438 209.585938 357.015625 C 219.597656 357.015625 229.609375 357.015625 239.617188 357.015625 C 239.617188 367.023438 239.617188 377.035156 239.617188 387.046875 C 229.609375 387.046875 219.597656 387.046875 209.585938 387.046875 Z M 209.585938 387.046875 "/>
<path fill-rule="nonzero" fill="rgb(100%, 100%, 100%)" fill-opacity="1" d="M 489.398438 387.046875 C 479.386719 387.046875 469.375 387.046875 459.367188 387.046875 C 459.367188 377.035156 459.367188 367.023438 459.367188 357.015625 C 469.375 357.015625 479.386719 357.015625 489.398438 357.015625 C 489.398438 367.023438 489.398438 377.035156 489.398438 387.046875 Z M 489.398438 387.046875 "/>
<path fill-rule="nonzero" fill="rgb(100%, 100%, 100%)" fill-opacity="1" d="M 489.398438 107.234375 C 489.398438 117.246094 489.398438 127.257812 489.398438 137.265625 C 479.386719 137.265625 469.375 137.265625 459.367188 137.265625 C 459.367188 127.257812 459.367188 117.246094 459.367188 107.234375 C 469.375 107.234375 479.386719 107.234375 489.398438 107.234375 Z M 489.398438 107.234375 "/>
<path fill-rule="nonzero" fill="rgb(100%, 100%, 100%)" fill-opacity="1" d="M 209.585938 107.234375 C 219.597656 107.234375 229.609375 107.234375 239.617188 107.234375 C 239.617188 117.246094 239.617188 127.257812 239.617188 137.265625 C 229.609375 137.265625 219.597656 137.265625 209.585938 137.265625 C 209.585938 127.257812 209.585938 117.246094 209.585938 107.234375 Z M 209.585938 107.234375 "/>
<path fill="none" stroke-width="0.0133929" stroke-linecap="butt" stroke-linejoin="miter" stroke="rgb(0%, 0%, 0%)" stroke-opacity="1" stroke-miterlimit="10" d="M -0.00000419755 0.214648 C 0.0715565 0.214648 0.143117 0.214648 0.21465 0.214648 C 0.21465 0.143115 0.21465 0.0715548 0.21465 -0.00000585801 " transform="matrix(139.905311, 0, 0, -139.905311, 209.586525, 387.046055)"/>
<path fill="none" stroke-width="0.0133929" stroke-linecap="butt" stroke-linejoin="miter" stroke="rgb(0%, 0%, 0%)" stroke-opacity="1" stroke-miterlimit="10" d="M 1.785355 -0.00000585801 C 1.785355 0.0715548 1.785355 0.143115 1.785355 0.214648 C 1.856888 0.214648 1.928449 0.214648 2.000009 0.214648 " transform="matrix(139.905311, 0, 0, -139.905311, 209.586525, 387.046055)"/>
<path fill="none" stroke-width="0.0133929" stroke-linecap="butt" stroke-linejoin="miter" stroke="rgb(0%, 0%, 0%)" stroke-opacity="1" stroke-miterlimit="10" d="M 2.000009 1.785353 C 1.928449 1.785353 1.856888 1.785353 1.785355 1.785353 C 1.785355 1.856886 1.785355 1.928447 1.785355 2.000008 " transform="matrix(139.905311, 0, 0, -139.905311, 209.586525, 387.046055)"/>
<path fill="none" stroke-width="0.0133929" stroke-linecap="butt" stroke-linejoin="miter" stroke="rgb(0%, 0%, 0%)" stroke-opacity="1" stroke-miterlimit="10" d="M 0.21465 2.000008 C 0.21465 1.928447 0.21465 1.856886 0.21465 1.785353 C 0.143117 1.785353 0.0715565 1.785353 -0.00000419755 1.785353 " transform="matrix(139.905311, 0, 0, -139.905311, 209.586525, 387.046055)"/>
<path fill="none" stroke-width="0.0267857" stroke-linecap="butt" stroke-linejoin="miter" stroke="rgb(0%, 0%, 0%)" stroke-opacity="1" stroke-miterlimit="10" d="M -0.00000419755 -0.00000585801 C 0.666658 -0.00000585801 1.333319 -0.00000585801 2.000009 -0.00000585801 " transform="matrix(139.905311, 0, 0, -139.905311, 209.586525, 387.046055)"/>
<path fill="none" stroke-width="0.0267857" stroke-linecap="butt" stroke-linejoin="miter" stroke="rgb(0%, 0%, 0%)" stroke-opacity="1" stroke-miterlimit="10" d="M 1.000003 0.0803498 C 1.000003 0.026798 1.000003 -0.0267818 1.000003 -0.0803615 " transform="matrix(139.905311, 0, 0, -139.905311, 209.586525, 387.046055)"/>
<path fill="none" stroke-width="0.0267857" stroke-linecap="butt" stroke-linejoin="miter" stroke="rgb(0%, 0%, 0%)" stroke-opacity="1" stroke-miterlimit="10" d="M 2.000009 -0.00000585801 C 2.000009 0.666656 2.000009 1.333346 2.000009 2.000008 " transform="matrix(139.905311, 0, 0, -139.905311, 209.586525, 387.046055)"/>
<path fill="none" stroke-width="0.0267857" stroke-linecap="butt" stroke-linejoin="miter" stroke="rgb(0%, 0%, 0%)" stroke-opacity="1" stroke-miterlimit="10" d="M 1.919654 1.000001 C 1.973205 1.000001 2.026785 1.000001 2.080365 1.000001 " transform="matrix(139.905311, 0, 0, -139.905311, 209.586525, 387.046055)"/>
<path fill="none" stroke-width="0.0267857" stroke-linecap="butt" stroke-linejoin="miter" stroke="rgb(0%, 0%, 0%)" stroke-opacity="1" stroke-miterlimit="10" d="M 2.000009 2.000008 C 1.333319 2.000008 0.666658 2.000008 -0.00000419755 2.000008 " transform="matrix(139.905311, 0, 0, -139.905311, 209.586525, 387.046055)"/>
<path fill="none" stroke-width="0.0267857" stroke-linecap="butt" stroke-linejoin="miter" stroke="rgb(0%, 0%, 0%)" stroke-opacity="1" stroke-miterlimit="10" d="M 1.000003 1.919652 C 1.000003 1.973204 1.000003 2.026783 1.000003 2.080363 " transform="matrix(139.905311, 0, 0, -139.905311, 209.586525, 387.046055)"/>
<path fill="none" stroke-width="0.0267857" stroke-linecap="butt" stroke-linejoin="miter" stroke="rgb(0%, 0%, 0%)" stroke-opacity="1" stroke-miterlimit="10" d="M -0.00000419755 2.000008 C -0.00000419755 1.333346 -0.00000419755 0.666656 -0.00000419755 -0.00000585801 " transform="matrix(139.905311, 0, 0, -139.905311, 209.586525, 387.046055)"/>
<path fill="none" stroke-width="0.0267857" stroke-linecap="butt" stroke-linejoin="miter" stroke="rgb(0%, 0%, 0%)" stroke-opacity="1" stroke-miterlimit="10" d="M 0.0803515 1.000001 C 0.0267996 1.000001 -0.0267801 1.000001 -0.0803599 1.000001 " transform="matrix(139.905311, 0, 0, -139.905311, 209.586525, 387.046055)"/>
<path fill-rule="nonzero" fill="rgb(0%, 0%, 0%)" fill-opacity="1" d="M 217.082031 387.046875 C 217.082031 385.058594 216.292969 383.152344 214.886719 381.746094 C 213.480469 380.339844 211.574219 379.550781 209.585938 379.550781 C 207.597656 379.550781 205.691406 380.339844 204.285156 381.746094 C 202.882812 383.152344 202.089844 385.058594 202.089844 387.046875 C 202.089844 389.035156 202.882812 390.941406 204.285156 392.347656 C 205.691406 393.75 207.597656 394.539062 209.585938 394.539062 C 211.574219 394.539062 213.480469 393.75 214.886719 392.347656 C 216.292969 390.941406 217.082031 389.035156 217.082031 387.046875 Z M 217.082031 387.046875 "/>
<path fill-rule="nonzero" fill="rgb(0%, 0%, 0%)" fill-opacity="1" d="M 167.429688 395.867188 C 165.976562 398.296875 164.5625 398.804688 162.964844 398.914062 C 162.527344 398.953125 162.203125 398.953125 162.203125 399.640625 C 162.203125 399.859375 162.382812 400.039062 162.671875 400.039062 C 163.652344 400.039062 164.777344 399.933594 165.796875 399.933594 C 166.992188 399.933594 168.261719 400.039062 169.425781 400.039062 C 169.644531 400.039062 170.113281 400.039062 170.113281 399.351562 C 170.113281 398.953125 169.789062 398.914062 169.535156 398.914062 C 168.699219 398.84375 167.828125 398.550781 167.828125 397.644531 C 167.828125 397.210938 168.046875 396.808594 168.335938 396.300781 C 169.253906 394.753906 170.175781 393.203125 171.09375 391.65625 C 174.132812 391.65625 177.167969 391.65625 180.207031 391.65625 C 180.277344 392.417969 180.785156 397.355469 180.785156 397.71875 C 180.785156 398.804688 178.898438 398.914062 178.171875 398.914062 C 177.664062 398.914062 177.300781 398.914062 177.300781 399.640625 C 177.300781 400.039062 177.738281 400.039062 177.808594 400.039062 C 179.296875 400.039062 180.859375 399.933594 182.347656 399.933594 C 183.253906 399.933594 185.539062 400.039062 186.449219 400.039062 C 186.667969 400.039062 187.101562 400.039062 187.101562 399.316406 C 187.101562 398.914062 186.738281 398.914062 186.265625 398.914062 C 184.015625 398.914062 184.015625 398.660156 183.90625 397.609375 C 183.167969 390.046875 182.429688 382.484375 181.695312 374.921875 C 181.621094 374.195312 181.621094 374.050781 181.003906 374.050781 C 180.421875 374.050781 180.277344 374.304688 180.058594 374.667969 C 175.847656 381.734375 171.640625 388.800781 167.429688 395.867188 Z M 171.785156 390.53125 C 174.167969 386.539062 176.550781 382.546875 178.933594 378.550781 C 179.320312 382.546875 179.710938 386.539062 180.097656 390.53125 C 177.324219 390.53125 174.554688 390.53125 171.785156 390.53125 Z M 171.785156 390.53125 "/>
<path fill-rule="nonzero" fill="rgb(0%, 0%, 0%)" fill-opacity="1" d="M 496.890625 387.046875 C 496.890625 385.058594 496.101562 383.152344 494.695312 381.746094 C 493.292969 380.339844 491.386719 379.550781 489.398438 379.550781 C 487.410156 379.550781 485.503906 380.339844 484.097656 381.746094 C 482.691406 383.152344 481.902344 385.058594 481.902344 387.046875 C 481.902344 389.035156 482.691406 390.941406 484.097656 392.347656 C 485.503906 393.75 487.410156 394.539062 489.398438 394.539062 C 491.386719 394.539062 493.292969 393.75 494.695312 392.347656 C 496.101562 390.941406 496.890625 389.035156 496.890625 387.046875 Z M 496.890625 387.046875 "/>
<path fill-rule="nonzero" fill="rgb(0%, 0%, 0%)" fill-opacity="1" d="M 516.164062 396.609375 C 515.800781 398.027344 515.730469 398.316406 512.863281 398.316406 C 512.246094 398.316406 511.882812 398.316406 511.882812 399.042969 C 511.882812 399.441406 512.207031 399.441406 512.863281 399.441406 C 517.179688 399.441406 521.5 399.441406 525.820312 399.441406 C 531.554688 399.441406 535.839844 395.160156 535.839844 391.601562 C 535.839844 388.988281 533.734375 386.882812 530.210938 386.484375 C 533.988281 385.792969 537.796875 383.109375 537.796875 379.660156 C 537.796875 376.972656 535.402344 374.652344 531.046875 374.652344 C 526.980469 374.652344 522.917969 374.652344 518.851562 374.652344 C 518.160156 374.652344 517.796875 374.652344 517.796875 375.375 C 517.796875 375.777344 518.125 375.777344 518.816406 375.777344 C 518.886719 375.777344 519.578125 375.777344 520.195312 375.847656 C 520.847656 375.921875 521.175781 375.957031 521.175781 376.429688 C 521.175781 376.574219 521.136719 376.683594 521.027344 377.117188 C 519.40625 383.617188 517.785156 390.113281 516.164062 396.609375 Z M 521.644531 386.15625 C 522.394531 383.15625 523.144531 380.15625 523.894531 377.15625 C 524.222656 375.882812 524.296875 375.777344 525.855469 375.777344 C 527.417969 375.777344 528.976562 375.777344 530.539062 375.777344 C 533.734375 375.777344 534.496094 377.917969 534.496094 379.515625 C 534.496094 382.707031 531.375 386.15625 526.945312 386.15625 C 525.179688 386.15625 523.414062 386.15625 521.644531 386.15625 Z M 520.011719 398.316406 C 519.503906 398.316406 519.433594 398.316406 519.214844 398.28125 C 518.851562 398.242188 518.742188 398.207031 518.742188 397.917969 C 518.742188 397.808594 518.742188 397.734375 518.921875 397.082031 C 519.757812 393.707031 520.59375 390.332031 521.429688 386.957031 C 523.714844 386.957031 526 386.957031 528.289062 386.957031 C 531.773438 386.957031 532.460938 389.640625 532.460938 391.203125 C 532.460938 394.796875 529.230469 398.316406 524.949219 398.316406 C 523.304688 398.316406 521.65625 398.316406 520.011719 398.316406 Z M 520.011719 398.316406 "/>
<path fill-rule="nonzero" fill="rgb(0%, 0%, 0%)" fill-opacity="1" d="M 217.082031 107.234375 C 217.082031 105.246094 216.292969 103.339844 214.886719 101.9375 C 213.480469 100.53125 211.574219 99.742188 209.585938 99.742188 C 207.597656 99.742188 205.691406 100.53125 204.285156 101.9375 C 202.882812 103.339844 202.089844 105.246094 202.089844 107.234375 C 202.089844 109.222656 202.882812 111.128906 204.285156 112.535156 C 205.691406 113.941406 207.597656 114.730469 209.585938 114.730469 C 211.574219 114.730469 213.480469 113.941406 214.886719 112.535156 C 216.292969 111.128906 217.082031 109.222656 217.082031 107.234375 Z M 217.082031 107.234375 "/>
<path fill-rule="nonzero" fill="rgb(0%, 0%, 0%)" fill-opacity="1" d="M 200.039062 81.917969 C 199.675781 83.335938 199.605469 83.625 196.738281 83.625 C 196.121094 83.625 195.722656 83.625 195.722656 84.316406 C 195.722656 84.75 196.046875 84.75 196.738281 84.75 C 200.742188 84.75 204.746094 84.75 208.75 84.75 C 216.300781 84.75 223.453125 77.09375 223.453125 69.144531 C 223.453125 64.023438 220.367188 59.960938 214.921875 59.960938 C 210.855469 59.960938 206.792969 59.960938 202.726562 59.960938 C 202.035156 59.960938 201.636719 59.960938 201.636719 60.648438 C 201.636719 61.085938 201.964844 61.085938 202.691406 61.085938 C 203.160156 61.085938 203.816406 61.121094 204.25 61.15625 C 204.832031 61.230469 205.050781 61.339844 205.050781 61.738281 C 205.050781 61.882812 205.011719 61.992188 204.902344 62.425781 C 203.28125 68.925781 201.660156 75.421875 200.039062 81.917969 Z M 207.878906 62.464844 C 208.207031 61.195312 208.28125 61.085938 209.839844 61.085938 C 211.136719 61.085938 212.429688 61.085938 213.722656 61.085938 C 217.28125 61.085938 220.292969 63.007812 220.292969 67.800781 C 220.292969 69.578125 219.566406 75.53125 216.484375 79.523438 C 215.429688 80.867188 212.5625 83.625 208.097656 83.625 C 206.730469 83.625 205.363281 83.625 203.996094 83.625 C 203.488281 83.625 203.414062 83.625 203.199219 83.589844 C 202.835938 83.554688 202.726562 83.515625 202.726562 83.226562 C 202.726562 83.117188 202.726562 83.042969 202.90625 82.390625 C 204.566406 75.75 206.222656 69.105469 207.878906 62.464844 Z M 207.878906 62.464844 "/>
<path fill-rule="nonzero" fill="rgb(0%, 0%, 0%)" fill-opacity="1" d="M 496.890625 107.234375 C 496.890625 105.246094 496.101562 103.339844 494.695312 101.9375 C 493.292969 100.53125 491.386719 99.742188 489.398438 99.742188 C 487.410156 99.742188 485.503906 100.53125 484.097656 101.9375 C 482.691406 103.339844 481.902344 105.246094 481.902344 107.234375 C 481.902344 109.222656 482.691406 111.128906 484.097656 112.535156 C 485.503906 113.941406 487.410156 114.730469 489.398438 114.730469 C 491.386719 114.730469 493.292969 113.941406 494.695312 112.535156 C 496.101562 111.128906 496.890625 109.222656 496.890625 107.234375 Z M 496.890625 107.234375 "/>
<path fill-rule="nonzero" fill="rgb(0%, 0%, 0%)" fill-opacity="1" d="M 537.652344 94.402344 C 537.652344 94.296875 537.582031 94.042969 537.253906 94.042969 C 537.144531 94.042969 537.109375 94.078125 536.710938 94.476562 C 535.863281 95.410156 535.015625 96.339844 534.167969 97.273438 C 533.84375 96.761719 532.171875 94.042969 528.144531 94.042969 C 520.050781 94.042969 511.882812 102.0625 511.882812 110.484375 C 511.882812 116.472656 516.164062 120.429688 521.71875 120.429688 C 524.875 120.429688 527.636719 118.976562 529.558594 117.308594 C 532.933594 114.332031 533.550781 111.027344 533.550781 110.917969 C 533.550781 110.558594 533.1875 110.558594 533.117188 110.558594 C 532.898438 110.558594 532.714844 110.628906 532.644531 110.917969 C 532.316406 111.972656 531.484375 114.550781 528.976562 116.65625 C 526.472656 118.6875 524.1875 119.304688 522.300781 119.304688 C 519.03125 119.304688 515.183594 117.417969 515.183594 111.753906 C 515.183594 109.683594 515.945312 103.804688 519.578125 99.558594 C 521.792969 96.980469 525.203125 95.167969 528.433594 95.167969 C 532.136719 95.167969 534.277344 97.960938 534.277344 102.171875 C 534.277344 103.625 534.167969 103.660156 534.167969 104.023438 C 534.167969 104.386719 534.566406 104.386719 534.714844 104.386719 C 535.183594 104.386719 535.183594 104.3125 535.367188 103.660156 C 536.128906 100.574219 536.890625 97.488281 537.652344 94.402344 Z M 537.652344 94.402344 "/>
</svg>
