<?xml version="1.0" encoding="UTF-8"?>
<svg xmlns="http://www.w3.org/2000/svg" xmlns:xlink="http://www.w3.org/1999/xlink" width="700" height="460" viewBox="0 0 700 460">
<rect x="-70" y="-46" width="840" height="552" fill="rgb(100%, 100%, 100%)" fill-opacity="1"/>
<path fill-rule="nonzero" fill="rgb(100%, 100%, 100%)" fill-opacity="1" d="M 551.929688 230 C 551.929688 176.625 530.726562 125.4375 492.984375 87.695312 C 455.242188 49.953125 404.054688 28.75 350.679688 28.75 C 297.304688 28.75 246.113281 49.953125 208.375 87.695312 C 170.632812 125.4375 149.429688 176.625 149.429688 230 C 149.429688 283.375 170.632812 334.5625 208.375 372.304688 C 246.113281 410.046875 297.304688 431.25 350.679688 431.25 C 404.054688 431.25 455.242188 410.046875 492.984375 372.304688 C 530.726562 334.5625 551.929688 283.375 551.929688 230 Z M 551.929688 230 "/>
<path fill-rule="nonzero" fill="rgb(100%, 100%, 100%)" fill-opacity="1" d="M 551.929688 230 C 518.386719 171.902344 484.84375 113.808594 451.304688 55.710938 C 384.21875 55.710938 317.136719 55.710938 250.054688 55.710938 C 216.511719 113.808594 182.96875 171.902344 149.429688 230 C 182.96875 288.097656 216.511719 346.191406 250.054688 404.289062 C 317.136719 404.289062 384.21875 404.289062 451.304688 404.289062 C 484.84375 346.191406 518.386719 288.097656 551.929688 230 Z M 551.929688 230 "/>
<path fill="none" stroke-width="0.0133929" stroke-linecap="butt" stroke-linejoin="miter" stroke="rgb(50.196078%, 50.196078%, 50.196078%)" stroke-opacity="1" stroke-miterlimit="10" d="M 3.000014 0 C 3.000014 0.795652 2.683942 1.558696 2.121326 2.121312 C 1.558709 2.683929 0.795666 3 0.0000136933 3 C -0.795638 3 -1.55874 2.683929 -2.121298 2.121312 C -2.683915 1.558696 -2.999986 0.795652 -2.999986 0 C -2.999986 -0.795652 -2.683915 -1.558696 -2.121298 -2.121312 C -1.55874 -2.683929 -0.795638 -3 0.0000136933 -3 C 0.795666 -3 1.558709 -2.683929 2.121326 -2.121312 C 2.683942 -1.558696 3.000014 -0.795652 3.000014 0 Z M 3.000014 0 " transform="matrix(67.083333, 0, 0, -67.083333, 350.678769, 230)"/>
<path fill="none" stroke-width="0.0267857" stroke-linecap="butt" stroke-linejoin="miter" stroke="rgb(0%, 0%, 0%)" stroke-opacity="1" stroke-miterlimit="10" d="M 3.000014 0 C 2.499994 0.866052 1.999975 1.732046 1.500014 2.598098 " transform="matrix(67.083333, 0, 0, -67.083333, 350.678769, 230)"/>
<path fill="none" stroke-width="0.0267857" stroke-linecap="butt" stroke-linejoin="miter" stroke="rgb(0%, 0%, 0%)" stroke-opacity="1" stroke-miterlimit="10" d="M 2.180429 1.25887 C 2.22678 1.285656 2.273189 1.312442 2.319598 1.339227 " transform="matrix(67.083333, 0, 0, -67.083333, 350.678769, 230)"/>
<path fill="none" stroke-width="0.0267857" stroke-linecap="butt" stroke-linejoin="miter" stroke="rgb(0%, 0%, 0%)" stroke-opacity="1" stroke-miterlimit="10" d="M 1.500014 2.598098 C 0.499975 2.598098 -0.500006 2.598098 -1.499986 2.598098 " transform="matrix(67.083333, 0, 0, -67.083333, 350.678769, 230)"/>
<path fill="none" stroke-width="0.0267857" stroke-linecap="butt" stroke-linejoin="miter" stroke="rgb(0%, 0%, 0%)" stroke-opacity="1" stroke-miterlimit="10" d="M 0.0000136933 2.517741 C 0.0000136933 2.571312 0.0000136933 2.624884 0.0000136933 2.678455 " transform="matrix(67.083333, 0, 0, -67.083333, 350.678769, 230)"/>
<path fill="none" stroke-width="0.0267857" stroke-linecap="butt" stroke-linejoin="miter" stroke="rgb(0%, 0%, 0%)" stroke-opacity="1" stroke-miterlimit="10" d="M -1.499986 2.598098 C -2.000006 1.732046 -2.500025 0.866052 -2.999986 0 " transform="matrix(67.083333, 0, 0, -67.083333, 350.678769, 230)"/>
<path fill="none" stroke-width="0.0267857" stroke-linecap="butt" stroke-linejoin="miter" stroke="rgb(0%, 0%, 0%)" stroke-opacity="1" stroke-miterlimit="10" d="M -2.180402 1.25887 C -2.226811 1.285656 -2.27322 1.312442 -2.319571 1.339227 " transform="matrix(67.083333, 0, 0, -67.083333, 350.678769, 230)"/>
<path fill="none" stroke-width="0.0267857" stroke-linecap="butt" stroke-linejoin="miter" stroke="rgb(0%, 0%, 0%)" stroke-opacity="1" stroke-miterlimit="10" d="M -2.999986 0 C -2.500025 -0.866052 -2.000006 -1.732046 -1.499986 -2.598098 " transform="matrix(67.083333, 0, 0, -67.083333, 350.678769, 230)"/>
<path fill="none" stroke-width="0.0267857" stroke-linecap="butt" stroke-linejoin="miter" stroke="rgb(0%, 0%, 0%)" stroke-opacity="1" stroke-miterlimit="10" d="M -2.180402 -1.25887 C -2.226811 -1.285656 -2.27322 -1.312442 -2.319571 -1.339227 " transform="matrix(67.083333, 0, 0, -67.083333, 350.678769, 230)"/>
<path fill="none" stroke-width="0.0267857" stroke-linecap="butt" stroke-linejoin="miter" stroke="rgb(0%, 0%, 0%)" stroke-opacity="1" stroke-miterlimit="10" d="M -1.499986 -2.598098 C -0.500006 -2.598098 0.499975 -2.598098 1.500014 -2.598098 " transform="matrix(67.083333, 0, 0, -67.083333, 350.678769, 230)"/>
<path fill="none" stroke-width="0.0267857" stroke-linecap="butt" stroke-linejoin="miter" stroke="rgb(0%, 0%, 0%)" stroke-opacity="1" stroke-miterlimit="10" d="M 0.0000136933 -2.517741 C 0.0000136933 -2.571312 0.0000136933 -2.624884 0.0000136933 -2.678455 " transform="matrix(67.083333, 0, 0, -67.083333, 350.678769, 230)"/>
<path fill="none" stroke-width="0.0267857" stroke-linecap="butt" stroke-linejoin="miter" stroke="rgb(0%, 0%, 0%)" stroke-opacity="1" stroke-miterlimit="10" d="M 1.500014 -2.598098 C 1.999975 -1.732046 2.499994 -0.866052 3.000014 0 " transform="matrix(67.083333, 0, 0, -67.083333, 350.678769, 230)"/>
<path fill="none" stroke-width="0.0267857" stroke-linecap="butt" stroke-linejoin="miter" stroke="rgb(0%, 0%, 0%)" stroke-opacity="1" stroke-miterlimit="10" d="M 2.180429 -1.25887 C 2.22678 -1.285656 2.273189 -1.312442 2.319598 -1.339227 " transform="matrix(67.083333, 0, 0, -67.083333, 350.678769, 230)"/>
<path fill="none" stroke-width="0.0133929" stroke-linecap="butt" stroke-linejoin="miter" stroke="rgb(50.196078%, 50.196078%, 50.196078%)" stroke-opacity="1" stroke-miterlimit="10" d="M 0.0000136933 0 C 0.999994 0 1.999975 0 3.000014 0 " transform="matrix(67.083333, 0, 0, -67.083333, 350.678769, 230)"/>
<path fill="none" stroke-width="0.0267857" stroke-linecap="butt" stroke-linejoin="miter" stroke="rgb(50.196078%, 50.196078%, 50.196078%)" stroke-opacity="1" stroke-miterlimit="10" d="M 1.482137 0.0803571 C 1.482137 0.0267857 1.482137 -0.0267857 1.482137 -0.0803571 " transform="matrix(67.083333, 0, 0, -67.083333, 350.678769, 230)"/>
<path fill="none" stroke-width="0.0267857" stroke-linecap="butt" stroke-linejoin="miter" stroke="rgb(50.196078%, 50.196078%, 50.196078%)" stroke-opacity="1" stroke-miterlimit="10" d="M 1.517832 0.0803571 C 1.517832 0.0267857 1.517832 -0.0267857 1.517832 -0.0803571 " transform="matrix(67.083333, 0, 0, -67.083333, 350.678769, 230)"/>
<path fill="none" stroke-width="0.0133929" stroke-linecap="butt" stroke-linejoin="miter" stroke="rgb(50.196078%, 50.196078%, 50.196078%)" stroke-opacity="1" stroke-miterlimit="10" d="M 0.0000136933 0 C 0.499975 0.866052 0.999994 1.732046 1.500014 2.598098 " transform="matrix(67.083333, 0, 0, -67.083333, 350.678769, 230)"/>
<path fill="none" stroke-width="0.0267857" stroke-linecap="butt" stroke-linejoin="miter" stroke="rgb(50.196078%, 50.196078%, 50.196078%)" stroke-opacity="1" stroke-miterlimit="10" d="M 0.671462 1.323738 C 0.717871 1.296953 0.76428 1.270167 0.810689 1.243381 " transform="matrix(67.083333, 0, 0, -67.083333, 350.678769, 230)"/>
<path fill="none" stroke-width="0.0267857" stroke-linecap="butt" stroke-linejoin="miter" stroke="rgb(50.196078%, 50.196078%, 50.196078%)" stroke-opacity="1" stroke-miterlimit="10" d="M 0.689338 1.354658 C 0.735747 1.327873 0.782098 1.301087 0.828507 1.274301 " transform="matrix(67.083333, 0, 0, -67.083333, 350.678769, 230)"/>
<path fill="none" stroke-width="0.0133929" stroke-linecap="butt" stroke-linejoin="miter" stroke="rgb(50.196078%, 50.196078%, 50.196078%)" stroke-opacity="1" stroke-miterlimit="10" d="M 0.0000136933 0 C -0.500006 0.866052 -1.000025 1.732046 -1.499986 2.598098 " transform="matrix(67.083333, 0, 0, -67.083333, 350.678769, 230)"/>
<path fill="none" stroke-width="0.0267857" stroke-linecap="butt" stroke-linejoin="miter" stroke="rgb(50.196078%, 50.196078%, 50.196078%)" stroke-opacity="1" stroke-miterlimit="10" d="M -0.810662 1.243381 C -0.764253 1.270167 -0.717902 1.296953 -0.671493 1.323738 " transform="matrix(67.083333, 0, 0, -67.083333, 350.678769, 230)"/>
<path fill="none" stroke-width="0.0267857" stroke-linecap="butt" stroke-linejoin="miter" stroke="rgb(50.196078%, 50.196078%, 50.196078%)" stroke-opacity="1" stroke-miterlimit="10" d="M -0.828538 1.274301 C -0.782129 1.301087 -0.73572 1.327873 -0.689311 1.354658 " transform="matrix(67.083333, 0, 0, -67.083333, 350.678769, 230)"/>
<path fill="none" stroke-width="0.0133929" stroke-linecap="butt" stroke-linejoin="miter" stroke="rgb(50.196078%, 50.196078%, 50.196078%)" stroke-opacity="1" stroke-miterlimit="10" d="M 0.0000136933 0 C -1.000025 0 -2.000006 0 -2.999986 0 " transform="matrix(67.083333, 0, 0, -67.083333, 350.678769, 230)"/>
<path fill="none" stroke-width="0.0267857" stroke-linecap="butt" stroke-linejoin="miter" stroke="rgb(50.196078%, 50.196078%, 50.196078%)" stroke-opacity="1" stroke-miterlimit="10" d="M -1.482168 -0.0803571 C -1.482168 -0.0267857 -1.482168 0.0267857 -1.482168 0.0803571 " transform="matrix(67.083333, 0, 0, -67.083333, 350.678769, 230)"/>
<path fill="none" stroke-width="0.0267857" stroke-linecap="butt" stroke-linejoin="miter" stroke="rgb(50.196078%, 50.196078%, 50.196078%)" stroke-opacity="1" stroke-miterlimit="10" d="M -1.517863 -0.0803571 C -1.517863 -0.0267857 -1.517863 0.0267857 -1.517863 0.0803571 " transform="matrix(67.083333, 0, 0, -67.083333, 350.678769, 230)"/>
<path fill="none" stroke-width="0.0133929" stroke-linecap="butt" stroke-linejoin="miter" stroke="rgb(50.196078%, 50.196078%, 50.196078%)" stroke-opacity="1" stroke-miterlimit="10" d="M 0.0000136933 0 C -0.500006 -0.866052 -1.000025 -1.732046 -1.499986 -2.598098 " transform="matrix(67.083333, 0, 0, -67.083333, 350.678769, 230)"/>
<path fill="none" stroke-width="0.0267857" stroke-linecap="butt" stroke-linejoin="miter" stroke="rgb(50.196078%, 50.196078%, 50.196078%)" stroke-opacity="1" stroke-miterlimit="10" d="M -0.671493 -1.323738 C -0.717902 -1.296953 -0.764253 -1.270167 -0.810662 -1.243381 " transform="matrix(67.083333, 0, 0, -67.083333, 350.678769, 230)"/>
<path fill="none" stroke-width="0.0267857" stroke-linecap="butt" stroke-linejoin="miter" stroke="rgb(50.196078%, 50.196078%, 50.196078%)" stroke-opacity="1" stroke-miterlimit="10" d="M -0.689311 -1.354658 C -0.73572 -1.327873 -0.782129 -1.301087 -0.828538 -1.274301 " transform="matrix(67.083333, 0, 0, -67.083333, 350.678769, 230)"/>
<path fill="none" stroke-width="0.0133929" stroke-linecap="butt" stroke-linejoin="miter" stroke="rgb(50.196078%, 50.196078%, 50.196078%)" stroke-opacity="1" stroke-miterlimit="10" d="M 0.0000136933 0 C 0.499975 -0.866052 0.999994 -1.732046 1.500014 -2.598098 " transform="matrix(67.083333, 0, 0, -67.083333, 350.678769, 230)"/>
<path fill="none" stroke-width="0.0267857" stroke-linecap="butt" stroke-linejoin="miter" stroke="rgb(50.196078%, 50.196078%, 50.196078%)" stroke-opacity="1" stroke-miterlimit="10" d="M 0.810689 -1.243381 C 0.76428 -1.270167 0.717871 -1.296953 0.671462 -1.323738 " transform="matrix(67.083333, 0, 0, -67.083333, 350.678769, 230)"/>
<path fill="none" stroke-width="0.0267857" stroke-linecap="butt" stroke-linejoin="miter" stroke="rgb(50.196078%, 50.196078%, 50.196078%)" stroke-opacity="1" stroke-miterlimit="10" d="M 0.828507 -1.274301 C 0.782098 -1.301087 0.735747 -1.327873 0.689338 -1.354658 " transform="matrix(67.083333, 0, 0, -67.083333, 350.678769, 230)"/>
<path fill="none" stroke-width="0.0267857" stroke-linecap="butt" stroke-linejoin="round" stroke="rgb(0%, 0%, 0%)" stroke-opacity="1" stroke-miterlimit="10" d="M 3.000014 0 C 2.499994 0.866052 1.999975 1.732046 1.500014 2.598098 C 0.499975 2.598098 -0.500006 2.598098 -1.499986 2.598098 C -2.000006 1.732046 -2.500025 0.866052 -2.999986 0 C -2.500025 -0.866052 -2.000006 -1.732046 -1.499986 -2.598098 C -0.500006 -2.598098 0.499975 -2.598098 1.500014 -2.598098 C 1.999975 -1.732046 2.499994 -0.866052 3.000014 0 Z M 3.000014 0 " transform="matrix(67.083333, 0, 0, -67.083333, 350.678769, 230)"/>
<path fill-rule="nonzero" fill="rgb(0%, 0%, 0%)" fill-opacity="1" d="M 354.273438 230 C 354.273438 229.046875 353.894531 228.132812 353.21875 227.457031 C 352.546875 226.785156 351.632812 226.40625 350.679688 226.40625 C 349.726562 226.40625 348.8125 226.785156 348.136719 227.457031 C 347.464844 228.132812 347.085938 229.046875 347.085938 230 C 347.085938 230.953125 347.464844 231.867188 348.136719 232.542969 C 348.8125 233.214844 349.726562 233.59375 350.679688 233.59375 C 351.632812 233.59375 352.546875 233.214844 353.21875 232.542969 C 353.894531 231.867188 354.273438 230.953125 354.273438 230 Z M 354.273438 230 "/>
<path fill-rule="nonzero" fill="rgb(0%, 0%, 0%)" fill-opacity="1" d="M 356.691406 201.664062 C 356.691406 198.863281 354.847656 196.984375 352.253906 196.984375 C 348.496094 196.984375 344.664062 200.933594 344.664062 204.988281 C 344.664062 207.878906 346.613281 209.636719 349.121094 209.636719 C 352.8125 209.636719 356.691406 205.824219 356.691406 201.664062 Z M 349.226562 209.183594 C 347.503906 209.183594 346.285156 207.773438 346.285156 205.476562 C 346.285156 204.710938 346.527344 202.167969 347.867188 200.132812 C 349.070312 198.324219 350.773438 197.417969 352.148438 197.417969 C 353.578125 197.417969 355.144531 198.390625 355.144531 200.984375 C 355.144531 202.238281 354.671875 204.953125 352.949219 207.09375 C 352.113281 208.15625 350.6875 209.183594 349.226562 209.183594 Z M 349.226562 209.183594 "/>
<path fill-rule="nonzero" fill="rgb(0%, 0%, 0%)" fill-opacity="1" d="M 555.523438 230 C 555.523438 229.046875 555.144531 228.132812 554.46875 227.457031 C 553.796875 226.785156 552.882812 226.40625 551.929688 226.40625 C 550.976562 226.40625 550.0625 226.785156 549.386719 227.457031 C 548.714844 228.132812 548.335938 229.046875 548.335938 230 C 548.335938 230.953125 548.714844 231.867188 549.386719 232.542969 C 550.0625 233.214844 550.976562 233.59375 551.929688 233.59375 C 552.882812 233.59375 553.796875 233.214844 554.46875 232.542969 C 555.144531 231.867188 555.523438 230.953125 555.523438 230 Z M 555.523438 230 "/>
<path fill-rule="nonzero" fill="rgb(0%, 0%, 0%)" fill-opacity="1" d="M 565.214844 234.230469 C 564.519531 235.394531 563.839844 235.640625 563.074219 235.691406 C 562.867188 235.707031 562.710938 235.707031 562.710938 236.039062 C 562.710938 236.144531 562.796875 236.230469 562.9375 236.230469 C 563.40625 236.230469 563.945312 236.179688 564.433594 236.179688 C 565.007812 236.179688 565.617188 236.230469 566.171875 236.230469 C 566.277344 236.230469 566.503906 236.230469 566.503906 235.898438 C 566.503906 235.707031 566.347656 235.691406 566.226562 235.691406 C 565.824219 235.65625 565.40625 235.515625 565.40625 235.082031 C 565.40625 234.875 565.511719 234.683594 565.652344 234.4375 C 566.09375 233.695312 566.53125 232.953125 566.972656 232.210938 C 568.429688 232.210938 569.886719 232.210938 571.34375 232.210938 C 571.378906 232.574219 571.621094 234.941406 571.621094 235.117188 C 571.621094 235.640625 570.714844 235.691406 570.367188 235.691406 C 570.125 235.691406 569.949219 235.691406 569.949219 236.039062 C 569.949219 236.230469 570.160156 236.230469 570.195312 236.230469 C 570.90625 236.230469 571.65625 236.179688 572.371094 236.179688 C 572.804688 236.179688 573.902344 236.230469 574.335938 236.230469 C 574.441406 236.230469 574.648438 236.230469 574.648438 235.882812 C 574.648438 235.691406 574.476562 235.691406 574.25 235.691406 C 573.171875 235.691406 573.171875 235.570312 573.117188 235.066406 C 572.765625 231.4375 572.410156 227.8125 572.054688 224.1875 C 572.019531 223.839844 572.019531 223.769531 571.726562 223.769531 C 571.445312 223.769531 571.378906 223.890625 571.273438 224.066406 C 569.253906 227.453125 567.234375 230.839844 565.214844 234.230469 Z M 567.304688 231.671875 C 568.449219 229.757812 569.589844 227.84375 570.734375 225.925781 C 570.917969 227.84375 571.105469 229.757812 571.289062 231.671875 C 569.960938 231.671875 568.632812 231.671875 567.304688 231.671875 Z M 567.304688 231.671875 "/>
<path fill-rule="nonzero" fill="rgb(0%, 0%, 0%)" fill-opacity="1" d="M 454.898438 55.710938 C 454.898438 54.757812 454.519531 53.84375 453.84375 53.171875 C 453.171875 52.496094 452.257812 52.117188 451.304688 52.117188 C 450.351562 52.117188 449.4375 52.496094 448.761719 53.171875 C 448.089844 53.84375 447.710938 54.757812 447.710938 55.710938 C 447.710938 56.664062 448.089844 57.578125 448.761719 58.253906 C 449.4375 58.925781 450.351562 59.304688 451.304688 59.304688 C 452.257812 59.304688 453.171875 58.925781 453.84375 58.253906 C 454.519531 57.578125 454.898438 56.664062 454.898438 55.710938 Z M 454.898438 55.710938 "/>
<path fill-rule="nonzero" fill="rgb(0%, 0%, 0%)" fill-opacity="1" d="M 455.613281 45.882812 C 455.441406 46.5625 455.40625 46.703125 454.03125 46.703125 C 453.734375 46.703125 453.5625 46.703125 453.5625 47.050781 C 453.5625 47.242188 453.71875 47.242188 454.03125 47.242188 C 456.101562 47.242188 458.171875 47.242188 460.246094 47.242188 C 462.992188 47.242188 465.046875 45.1875 465.046875 43.484375 C 465.046875 42.230469 464.039062 41.21875 462.351562 41.027344 C 464.160156 40.699219 465.988281 39.410156 465.988281 37.757812 C 465.988281 36.46875 464.839844 35.355469 462.75 35.355469 C 460.800781 35.355469 458.851562 35.355469 456.902344 35.355469 C 456.570312 35.355469 456.398438 35.355469 456.398438 35.703125 C 456.398438 35.894531 456.554688 35.894531 456.886719 35.894531 C 456.921875 35.894531 457.25 35.894531 457.546875 35.929688 C 457.859375 35.964844 458.015625 35.980469 458.015625 36.207031 C 458.015625 36.277344 458 36.328125 457.945312 36.539062 C 457.167969 39.652344 456.390625 42.769531 455.613281 45.882812 Z M 458.242188 40.871094 C 458.601562 39.433594 458.960938 37.996094 459.320312 36.554688 C 459.476562 35.945312 459.511719 35.894531 460.261719 35.894531 C 461.011719 35.894531 461.757812 35.894531 462.507812 35.894531 C 464.039062 35.894531 464.402344 36.921875 464.402344 37.6875 C 464.402344 39.21875 462.90625 40.871094 460.785156 40.871094 C 459.9375 40.871094 459.089844 40.871094 458.242188 40.871094 Z M 457.460938 46.703125 C 457.214844 46.703125 457.179688 46.703125 457.078125 46.683594 C 456.902344 46.667969 456.851562 46.648438 456.851562 46.511719 C 456.851562 46.457031 456.851562 46.425781 456.9375 46.109375 C 457.335938 44.492188 457.738281 42.875 458.136719 41.253906 C 459.234375 41.253906 460.332031 41.253906 461.425781 41.253906 C 463.097656 41.253906 463.429688 42.542969 463.429688 43.292969 C 463.429688 45.015625 461.878906 46.703125 459.828125 46.703125 C 459.039062 46.703125 458.25 46.703125 457.460938 46.703125 Z M 457.460938 46.703125 "/>
<path fill-rule="nonzero" fill="rgb(0%, 0%, 0%)" fill-opacity="1" d="M 253.648438 55.710938 C 253.648438 54.757812 253.269531 53.84375 252.59375 53.171875 C 251.921875 52.496094 251.007812 52.117188 250.054688 52.117188 C 249.101562 52.117188 248.1875 52.496094 247.511719 53.171875 C 246.839844 53.84375 246.460938 54.757812 246.460938 55.710938 C 246.460938 56.664062 246.839844 57.578125 247.511719 58.253906 C 248.1875 58.925781 249.101562 59.304688 250.054688 59.304688 C 251.007812 59.304688 251.921875 58.925781 252.59375 58.253906 C 253.269531 57.578125 253.648438 56.664062 253.648438 55.710938 Z M 253.648438 55.710938 "/>
<path fill-rule="nonzero" fill="rgb(0%, 0%, 0%)" fill-opacity="1" d="M 246.914062 33.914062 C 246.914062 33.863281 246.878906 33.742188 246.722656 33.742188 C 246.671875 33.742188 246.652344 33.757812 246.460938 33.949219 C 246.054688 34.398438 245.648438 34.84375 245.242188 35.289062 C 245.085938 35.046875 244.285156 33.742188 242.355469 33.742188 C 238.472656 33.742188 234.558594 37.589844 234.558594 41.625 C 234.558594 44.496094 236.613281 46.394531 239.273438 46.394531 C 240.789062 46.394531 242.109375 45.699219 243.035156 44.898438 C 244.652344 43.472656 244.949219 41.886719 244.949219 41.835938 C 244.949219 41.660156 244.773438 41.660156 244.738281 41.660156 C 244.632812 41.660156 244.546875 41.695312 244.511719 41.835938 C 244.355469 42.339844 243.957031 43.574219 242.753906 44.585938 C 241.554688 45.558594 240.457031 45.855469 239.550781 45.855469 C 237.984375 45.855469 236.140625 44.949219 236.140625 42.234375 C 236.140625 41.242188 236.507812 38.421875 238.246094 36.386719 C 239.308594 35.152344 240.945312 34.28125 242.492188 34.28125 C 244.269531 34.28125 245.296875 35.621094 245.296875 37.640625 C 245.296875 38.335938 245.242188 38.355469 245.242188 38.527344 C 245.242188 38.703125 245.433594 38.703125 245.503906 38.703125 C 245.730469 38.703125 245.730469 38.667969 245.816406 38.355469 C 246.183594 36.875 246.550781 35.394531 246.914062 33.914062 Z M 246.914062 33.914062 "/>
<path fill-rule="nonzero" fill="rgb(0%, 0%, 0%)" fill-opacity="1" d="M 153.023438 230 C 153.023438 229.046875 152.644531 228.132812 151.96875 227.457031 C 151.296875 226.785156 150.382812 226.40625 149.429688 226.40625 C 148.476562 226.40625 147.5625 226.785156 146.886719 227.457031 C 146.214844 228.132812 145.835938 229.046875 145.835938 230 C 145.835938 230.953125 146.214844 231.867188 146.886719 232.542969 C 147.5625 233.214844 148.476562 233.59375 149.429688 233.59375 C 150.382812 233.59375 151.296875 233.214844 151.96875 232.542969 C 152.644531 231.867188 153.023438 230.953125 153.023438 230 Z M 153.023438 230 "/>
<path fill-rule="nonzero" fill="rgb(0%, 0%, 0%)" fill-opacity="1" d="M 127.421875 234.585938 C 127.246094 235.265625 127.210938 235.402344 125.839844 235.402344 C 125.542969 235.402344 125.351562 235.402344 125.351562 235.734375 C 125.351562 235.945312 125.507812 235.945312 125.839844 235.945312 C 127.757812 235.945312 129.679688 235.945312 131.597656 235.945312 C 135.21875 235.945312 138.648438 232.269531 138.648438 228.460938 C 138.648438 226.003906 137.167969 224.054688 134.558594 224.054688 C 132.609375 224.054688 130.660156 224.054688 128.710938 224.054688 C 128.378906 224.054688 128.1875 224.054688 128.1875 224.386719 C 128.1875 224.597656 128.34375 224.597656 128.691406 224.597656 C 128.917969 224.597656 129.230469 224.613281 129.441406 224.628906 C 129.71875 224.664062 129.824219 224.71875 129.824219 224.910156 C 129.824219 224.980469 129.804688 225.03125 129.753906 225.238281 C 128.976562 228.355469 128.199219 231.46875 127.421875 234.585938 Z M 131.179688 225.257812 C 131.335938 224.648438 131.371094 224.597656 132.121094 224.597656 C 132.742188 224.597656 133.363281 224.597656 133.984375 224.597656 C 135.6875 224.597656 137.132812 225.519531 137.132812 227.816406 C 137.132812 228.667969 136.785156 231.523438 135.304688 233.4375 C 134.800781 234.082031 133.425781 235.402344 131.285156 235.402344 C 130.628906 235.402344 129.972656 235.402344 129.320312 235.402344 C 129.074219 235.402344 129.039062 235.402344 128.9375 235.386719 C 128.761719 235.371094 128.710938 235.351562 128.710938 235.210938 C 128.710938 235.160156 128.710938 235.125 128.796875 234.8125 C 129.589844 231.628906 130.386719 228.441406 131.179688 225.257812 Z M 131.179688 225.257812 "/>
<path fill-rule="nonzero" fill="rgb(0%, 0%, 0%)" fill-opacity="1" d="M 253.648438 404.289062 C 253.648438 403.335938 253.269531 402.421875 252.59375 401.746094 C 251.921875 401.074219 251.007812 400.695312 250.054688 400.695312 C 249.101562 400.695312 248.1875 401.074219 247.511719 401.746094 C 246.839844 402.421875 246.460938 403.335938 246.460938 404.289062 C 246.460938 405.242188 246.839844 406.15625 247.511719 406.828125 C 248.1875 407.503906 249.101562 407.882812 250.054688 407.882812 C 251.007812 407.882812 251.921875 407.503906 252.59375 406.828125 C 253.269531 406.15625 253.648438 405.242188 253.648438 404.289062 Z M 253.648438 404.289062 "/>
<path fill-rule="nonzero" fill="rgb(0%, 0%, 0%)" fill-opacity="1" d="M 246.933594 420.539062 C 246.96875 420.449219 247.023438 420.328125 247.023438 420.292969 C 247.023438 420.277344 247.023438 420.101562 246.8125 420.101562 C 246.65625 420.101562 246.621094 420.207031 246.585938 420.3125 C 245.457031 422.886719 244.8125 424.054688 241.835938 424.054688 C 240.988281 424.054688 240.140625 424.054688 239.292969 424.054688 C 239.050781 424.054688 239.015625 424.054688 238.910156 424.035156 C 238.738281 424.019531 238.683594 424 238.683594 423.863281 C 238.683594 423.808594 238.683594 423.773438 238.773438 423.460938 C 239.167969 421.878906 239.5625 420.292969 239.957031 418.710938 C 240.53125 418.710938 241.105469 418.710938 241.679688 418.710938 C 243.160156 418.710938 243.160156 419.074219 243.160156 419.511719 C 243.160156 419.632812 243.160156 419.839844 243.035156 420.363281 C 243 420.449219 242.984375 420.503906 242.984375 420.554688 C 242.984375 420.640625 243.054688 420.746094 243.210938 420.746094 C 243.351562 420.746094 243.402344 420.660156 243.472656 420.398438 C 243.800781 419.042969 244.132812 417.683594 244.464844 416.324219 C 244.464844 416.222656 244.375 416.132812 244.253906 416.132812 C 244.097656 416.132812 244.0625 416.238281 244.011719 416.449219 C 243.644531 417.769531 243.332031 418.171875 241.730469 418.171875 C 241.1875 418.171875 240.640625 418.171875 240.09375 418.171875 C 240.441406 416.773438 240.792969 415.375 241.140625 413.976562 C 241.296875 413.367188 241.3125 413.296875 242.078125 413.296875 C 242.898438 413.296875 243.714844 413.296875 244.535156 413.296875 C 246.65625 413.296875 247.179688 413.800781 247.179688 415.230469 C 247.179688 415.648438 247.179688 415.683594 247.109375 416.152344 C 247.109375 416.257812 247.089844 416.378906 247.089844 416.464844 C 247.089844 416.550781 247.144531 416.675781 247.300781 416.675781 C 247.492188 416.675781 247.507812 416.570312 247.542969 416.238281 C 247.660156 415.234375 247.777344 414.230469 247.890625 413.226562 C 247.945312 412.757812 247.859375 412.757812 247.421875 412.757812 C 244.492188 412.757812 241.5625 412.757812 238.632812 412.757812 C 238.285156 412.757812 238.109375 412.757812 238.109375 413.105469 C 238.109375 413.296875 238.269531 413.296875 238.597656 413.296875 C 239.242188 413.296875 239.730469 413.296875 239.730469 413.609375 C 239.730469 413.679688 239.730469 413.714844 239.644531 414.027344 C 238.875 417.097656 238.109375 420.167969 237.34375 423.234375 C 237.171875 423.914062 237.136719 424.054688 235.761719 424.054688 C 235.464844 424.054688 235.273438 424.054688 235.273438 424.382812 C 235.273438 424.59375 235.429688 424.59375 235.761719 424.59375 C 238.773438 424.59375 241.785156 424.59375 244.792969 424.59375 C 245.195312 424.59375 245.210938 424.574219 245.332031 424.296875 C 245.867188 423.042969 246.402344 421.792969 246.933594 420.539062 Z M 246.933594 420.539062 "/>
<path fill-rule="nonzero" fill="rgb(0%, 0%, 0%)" fill-opacity="1" d="M 454.898438 404.289062 C 454.898438 403.335938 454.519531 402.421875 453.84375 401.746094 C 453.171875 401.074219 452.257812 400.695312 451.304688 400.695312 C 450.351562 400.695312 449.4375 401.074219 448.761719 401.746094 C 448.089844 402.421875 447.710938 403.335938 447.710938 404.289062 C 447.710938 405.242188 448.089844 406.15625 448.761719 406.828125 C 449.4375 407.503906 450.351562 407.882812 451.304688 407.882812 C 452.257812 407.882812 453.171875 407.503906 453.84375 406.828125 C 454.519531 406.15625 454.898438 405.242188 454.898438 404.289062 Z M 454.898438 404.289062 "/>
<path fill-rule="nonzero" fill="rgb(0%, 0%, 0%)" fill-opacity="1" d="M 458.207031 418.9375 C 458.769531 418.9375 459.332031 418.9375 459.894531 418.9375 C 461.203125 418.9375 461.339844 419.214844 461.339844 419.71875 C 461.339844 419.839844 461.339844 420.050781 461.21875 420.574219 C 461.183594 420.660156 461.167969 420.730469 461.167969 420.765625 C 461.167969 420.902344 461.269531 420.972656 461.375 420.972656 C 461.550781 420.972656 461.550781 420.921875 461.636719 420.609375 C 461.957031 419.347656 462.273438 418.089844 462.59375 416.832031 C 462.644531 416.640625 462.644531 416.605469 462.644531 416.550781 C 462.644531 416.515625 462.609375 416.359375 462.4375 416.359375 C 462.261719 416.359375 462.246094 416.449219 462.175781 416.726562 C 461.8125 418.082031 461.410156 418.398438 459.929688 418.398438 C 459.402344 418.398438 458.875 418.398438 458.347656 418.398438 C 458.71875 416.921875 459.089844 415.449219 459.460938 413.976562 C 459.617188 413.367188 459.636719 413.296875 460.402344 413.296875 C 461.167969 413.296875 461.933594 413.296875 462.699219 413.296875 C 464.839844 413.296875 465.238281 413.871094 465.238281 415.210938 C 465.238281 415.613281 465.238281 415.683594 465.1875 416.152344 C 465.152344 416.378906 465.152344 416.414062 465.152344 416.464844 C 465.152344 416.550781 465.203125 416.675781 465.359375 416.675781 C 465.550781 416.675781 465.570312 416.570312 465.605469 416.238281 C 465.722656 415.234375 465.835938 414.230469 465.953125 413.226562 C 466.003906 412.757812 465.917969 412.757812 465.484375 412.757812 C 462.640625 412.757812 459.796875 412.757812 456.953125 412.757812 C 456.605469 412.757812 456.433594 412.757812 456.433594 413.105469 C 456.433594 413.296875 456.589844 413.296875 456.921875 413.296875 C 457.5625 413.296875 458.050781 413.296875 458.050781 413.609375 C 458.050781 413.679688 458.050781 413.714844 457.964844 414.027344 C 457.199219 417.097656 456.433594 420.167969 455.667969 423.234375 C 455.492188 423.914062 455.457031 424.054688 454.082031 424.054688 C 453.789062 424.054688 453.597656 424.054688 453.597656 424.382812 C 453.597656 424.59375 453.804688 424.59375 453.855469 424.59375 C 454.363281 424.59375 455.648438 424.539062 456.152344 424.539062 C 456.730469 424.539062 458.171875 424.59375 458.746094 424.59375 C 458.902344 424.59375 459.113281 424.59375 459.113281 424.261719 C 459.113281 424.125 459.007812 424.089844 459.007812 424.070312 C 458.957031 424.054688 458.921875 424.054688 458.519531 424.054688 C 458.136719 424.054688 458.050781 424.054688 457.617188 424.019531 C 457.113281 423.964844 457.058594 423.898438 457.058594 423.671875 C 457.058594 423.636719 457.058594 423.53125 457.128906 423.269531 C 457.488281 421.824219 457.847656 420.382812 458.207031 418.9375 Z M 458.207031 418.9375 "/>
</svg>
