<?xml version="1.0" encoding="UTF-8"?>
<svg xmlns="http://www.w3.org/2000/svg" xmlns:xlink="http://www.w3.org/1999/xlink" width="700" height="500" viewBox="0 0 700 500">
<rect x="-70" y="-50" width="840" height="600" fill="rgb(100%, 100%, 100%)" fill-opacity="1"/>
<path fill-rule="nonzero" fill="rgb(50.196078%, 50.196078%, 50.196078%)" fill-opacity="0.15" d="M 163.179688 289.3125 C 225.363281 334.472656 287.542969 379.636719 349.726562 424.800781 C 411.894531 379.621094 474.0625 334.4375 536.230469 289.253906 C 512.46875 216.167969 488.710938 143.082031 464.949219 69.992188 C 388.097656 70.003906 311.246094 70.015625 234.394531 70.027344 C 210.65625 143.121094 186.917969 216.214844 163.179688 289.3125 Z M 163.179688 289.3125 "/>
<path fill="none" stroke-width="0.0258621" stroke-linecap="butt" stroke-linejoin="miter" stroke="rgb(0%, 0%, 0%)" stroke-opacity="1" stroke-miterlimit="10" d="M -0.0000049733 1.999981 C 0.633349 1.540015 1.266662 1.080009 1.900016 0.620003 " transform="matrix(98.181478, 0, 0, -98.181478, 163.180176, 485.673622)"/>
<path fill="none" stroke-width="0.0258621" stroke-linecap="butt" stroke-linejoin="miter" stroke="rgb(0%, 0%, 0%)" stroke-opacity="1" stroke-miterlimit="10" d="M 1.900016 0.620003 C 2.533211 1.080168 3.166405 1.540373 3.799599 2.000578 " transform="matrix(98.181478, 0, 0, -98.181478, 163.180176, 485.673622)"/>
<path fill="none" stroke-width="0.0258621" stroke-linecap="butt" stroke-linejoin="miter" stroke="rgb(0%, 0%, 0%)" stroke-opacity="1" stroke-miterlimit="10" d="M 3.799599 2.000578 C 3.557581 2.744974 3.315603 3.489371 3.073584 4.233807 " transform="matrix(98.181478, 0, 0, -98.181478, 163.180176, 485.673622)"/>
<path fill="none" stroke-width="0.0258621" stroke-linecap="butt" stroke-linejoin="miter" stroke="rgb(0%, 0%, 0%)" stroke-opacity="1" stroke-miterlimit="10" d="M 3.073584 4.233807 C 2.290834 4.233688 1.508084 4.233568 0.725334 4.233449 " transform="matrix(98.181478, 0, 0, -98.181478, 163.180176, 485.673622)"/>
<path fill="none" stroke-width="0.0258621" stroke-linecap="butt" stroke-linejoin="miter" stroke="rgb(0%, 0%, 0%)" stroke-opacity="1" stroke-miterlimit="10" d="M 0.725334 4.233449 C 0.483554 3.488973 0.241775 2.744497 -0.0000049733 1.999981 " transform="matrix(98.181478, 0, 0, -98.181478, 163.180176, 485.673622)"/>
<path fill="none" stroke-width="0.0431034" stroke-linecap="butt" stroke-linejoin="miter" stroke="rgb(81.568627%, 32.941176%, 33.72549%)" stroke-opacity="1" stroke-miterlimit="10" d="M -0.0000049733 1.999981 C 1.266543 2.00018 2.533051 2.000379 3.799599 2.000578 " transform="matrix(98.181478, 0, 0, -98.181478, 163.180176, 485.673622)"/>
<path fill="none" stroke-width="0.0431034" stroke-linecap="butt" stroke-linejoin="miter" stroke="rgb(81.568627%, 32.941176%, 33.72549%)" stroke-opacity="1" stroke-miterlimit="10" d="M -0.0000049733 1.999981 C 1.024525 2.744616 2.049054 3.489212 3.073584 4.233807 " transform="matrix(98.181478, 0, 0, -98.181478, 163.180176, 485.673622)"/>
<path fill="none" stroke-width="0.0431034" stroke-linecap="butt" stroke-linejoin="miter" stroke="rgb(81.568627%, 32.941176%, 33.72549%)" stroke-opacity="1" stroke-miterlimit="10" d="M 1.900016 0.620003 C 2.291192 1.824605 2.682408 3.029206 3.073584 4.233807 " transform="matrix(98.181478, 0, 0, -98.181478, 163.180176, 485.673622)"/>
<path fill="none" stroke-width="0.0431034" stroke-linecap="butt" stroke-linejoin="miter" stroke="rgb(81.568627%, 32.941176%, 33.72549%)" stroke-opacity="1" stroke-miterlimit="10" d="M 1.900016 0.620003 C 1.508442 1.824485 1.116868 3.028967 0.725334 4.233449 " transform="matrix(98.181478, 0, 0, -98.181478, 163.180176, 485.673622)"/>
<path fill="none" stroke-width="0.0431034" stroke-linecap="butt" stroke-linejoin="miter" stroke="rgb(81.568627%, 32.941176%, 33.72549%)" stroke-opacity="1" stroke-miterlimit="10" d="M 3.799599 2.000578 C 2.774831 2.744855 1.750063 3.489172 0.725334 4.233449 " transform="matrix(98.181478, 0, 0, -98.181478, 163.180176, 485.673622)"/>
<path fill="none" stroke-width="0.0258621" stroke-linecap="butt" stroke-linejoin="round" stroke="rgb(0%, 0%, 0%)" stroke-opacity="1" stroke-miterlimit="10" d="M -0.0000049733 1.999981 C 0.633349 1.540015 1.266662 1.080009 1.900016 0.620003 C 2.533211 1.080168 3.166405 1.540373 3.799599 2.000578 C 3.557581 2.744974 3.315603 3.489371 3.073584 4.233807 C 2.290834 4.233688 1.508084 4.233568 0.725334 4.233449 C 0.483554 3.488973 0.241775 2.744497 -0.0000049733 1.999981 Z M -0.0000049733 1.999981 " transform="matrix(98.181478, 0, 0, -98.181478, 163.180176, 485.673622)"/>
<path fill-rule="nonzero" fill="rgb(0%, 0%, 0%)" fill-opacity="1" d="M 170.796875 289.3125 C 170.796875 287.289062 169.996094 285.351562 168.566406 283.925781 C 167.136719 282.496094 165.199219 281.691406 163.179688 281.691406 C 161.160156 281.691406 159.222656 282.496094 157.792969 283.925781 C 156.363281 285.351562 155.5625 287.289062 155.5625 289.3125 C 155.5625 291.332031 156.363281 293.269531 157.792969 294.695312 C 159.222656 296.125 161.160156 296.929688 163.179688 296.929688 C 165.199219 296.929688 167.136719 296.125 168.566406 294.695312 C 169.996094 293.269531 170.796875 291.332031 170.796875 289.3125 Z M 170.796875 289.3125 "/>
<path fill-rule="nonzero" fill="rgb(0%, 0%, 0%)" fill-opacity="1" d="M 132.074219 295.285156 C 131.09375 296.933594 130.132812 297.277344 129.050781 297.351562 C 128.753906 297.378906 128.535156 297.378906 128.535156 297.84375 C 128.535156 297.992188 128.65625 298.117188 128.855469 298.117188 C 129.519531 298.117188 130.28125 298.042969 130.96875 298.042969 C 131.78125 298.042969 132.640625 298.117188 133.429688 298.117188 C 133.574219 298.117188 133.894531 298.117188 133.894531 297.648438 C 133.894531 297.378906 133.675781 297.351562 133.503906 297.351562 C 132.9375 297.304688 132.347656 297.105469 132.347656 296.492188 C 132.347656 296.195312 132.492188 295.925781 132.691406 295.582031 C 133.3125 294.53125 133.9375 293.484375 134.558594 292.433594 C 136.617188 292.433594 138.675781 292.433594 140.734375 292.433594 C 140.78125 292.949219 141.125 296.296875 141.125 296.542969 C 141.125 297.277344 139.847656 297.351562 139.355469 297.351562 C 139.011719 297.351562 138.765625 297.351562 138.765625 297.84375 C 138.765625 298.117188 139.0625 298.117188 139.109375 298.117188 C 140.117188 298.117188 141.175781 298.042969 142.183594 298.042969 C 142.800781 298.042969 144.347656 298.117188 144.964844 298.117188 C 145.109375 298.117188 145.40625 298.117188 145.40625 297.625 C 145.40625 297.351562 145.160156 297.351562 144.839844 297.351562 C 143.316406 297.351562 143.316406 297.179688 143.242188 296.46875 C 142.742188 291.34375 142.242188 286.21875 141.742188 281.097656 C 141.691406 280.605469 141.691406 280.507812 141.273438 280.507812 C 140.878906 280.507812 140.78125 280.679688 140.632812 280.925781 C 137.78125 285.710938 134.929688 290.5 132.074219 295.285156 Z M 135.027344 291.671875 C 136.640625 288.964844 138.257812 286.261719 139.871094 283.554688 C 140.132812 286.261719 140.398438 288.964844 140.660156 291.671875 C 138.78125 291.671875 136.90625 291.671875 135.027344 291.671875 Z M 135.027344 291.671875 "/>
<path fill-rule="nonzero" fill="rgb(0%, 0%, 0%)" fill-opacity="1" d="M 357.34375 424.800781 C 357.34375 422.78125 356.539062 420.84375 355.113281 419.414062 C 353.683594 417.984375 351.746094 417.183594 349.726562 417.183594 C 347.703125 417.183594 345.765625 417.984375 344.339844 419.414062 C 342.910156 420.84375 342.109375 422.78125 342.109375 424.800781 C 342.109375 426.820312 342.910156 428.757812 344.339844 430.1875 C 345.765625 431.617188 347.703125 432.417969 349.726562 432.417969 C 351.746094 432.417969 353.683594 431.617188 355.113281 430.1875 C 356.539062 428.757812 357.34375 426.820312 357.34375 424.800781 Z M 357.34375 424.800781 "/>
<path fill-rule="nonzero" fill="rgb(0%, 0%, 0%)" fill-opacity="1" d="M 343.847656 457.453125 C 343.601562 458.414062 343.550781 458.609375 341.609375 458.609375 C 341.191406 458.609375 340.945312 458.609375 340.945312 459.101562 C 340.945312 459.375 341.167969 459.375 341.609375 459.375 C 344.535156 459.375 347.460938 459.375 350.390625 459.375 C 354.273438 459.375 357.175781 456.472656 357.175781 454.0625 C 357.175781 452.289062 355.75 450.863281 353.363281 450.59375 C 355.921875 450.125 358.503906 448.304688 358.503906 445.96875 C 358.503906 444.148438 356.882812 442.574219 353.929688 442.574219 C 351.175781 442.574219 348.421875 442.574219 345.667969 442.574219 C 345.199219 442.574219 344.953125 442.574219 344.953125 443.066406 C 344.953125 443.335938 345.175781 443.335938 345.640625 443.335938 C 345.691406 443.335938 346.160156 443.335938 346.578125 443.386719 C 347.019531 443.4375 347.242188 443.460938 347.242188 443.78125 C 347.242188 443.878906 347.214844 443.953125 347.144531 444.246094 C 346.042969 448.648438 344.945312 453.050781 343.847656 457.453125 Z M 347.5625 450.371094 C 348.070312 448.339844 348.578125 446.304688 349.085938 444.273438 C 349.308594 443.410156 349.355469 443.335938 350.414062 443.335938 C 351.472656 443.335938 352.527344 443.335938 353.585938 443.335938 C 355.75 443.335938 356.265625 444.789062 356.265625 445.871094 C 356.265625 448.035156 354.152344 450.371094 351.152344 450.371094 C 349.953125 450.371094 348.757812 450.371094 347.5625 450.371094 Z M 346.453125 458.609375 C 346.109375 458.609375 346.058594 458.609375 345.914062 458.585938 C 345.667969 458.5625 345.59375 458.535156 345.59375 458.339844 C 345.59375 458.265625 345.59375 458.21875 345.714844 457.773438 C 346.28125 455.488281 346.847656 453.199219 347.414062 450.914062 C 348.960938 450.914062 350.511719 450.914062 352.0625 450.914062 C 354.421875 450.914062 354.890625 452.734375 354.890625 453.789062 C 354.890625 456.226562 352.699219 458.609375 349.796875 458.609375 C 348.683594 458.609375 347.570312 458.609375 346.453125 458.609375 Z M 346.453125 458.609375 "/>
<path fill-rule="nonzero" fill="rgb(0%, 0%, 0%)" fill-opacity="1" d="M 543.847656 289.253906 C 543.847656 287.234375 543.042969 285.296875 541.617188 283.867188 C 540.1875 282.441406 538.25 281.636719 536.230469 281.636719 C 534.210938 281.636719 532.273438 282.441406 530.84375 283.867188 C 529.414062 285.296875 528.613281 287.234375 528.613281 289.253906 C 528.613281 291.277344 529.414062 293.214844 530.84375 294.640625 C 532.273438 296.070312 534.210938 296.871094 536.230469 296.871094 C 538.25 296.871094 540.1875 296.070312 541.617188 294.640625 C 543.042969 293.214844 543.847656 291.277344 543.847656 289.253906 Z M 543.847656 289.253906 "/>
<path fill-rule="nonzero" fill="rgb(0%, 0%, 0%)" fill-opacity="1" d="M 571.464844 280.5625 C 571.464844 280.488281 571.417969 280.316406 571.195312 280.316406 C 571.121094 280.316406 571.097656 280.339844 570.828125 280.609375 C 570.253906 281.242188 569.679688 281.871094 569.105469 282.503906 C 568.882812 282.160156 567.753906 280.316406 565.023438 280.316406 C 559.539062 280.316406 554.003906 285.75 554.003906 291.457031 C 554.003906 295.515625 556.90625 298.195312 560.667969 298.195312 C 562.808594 298.195312 564.675781 297.210938 565.980469 296.082031 C 568.269531 294.0625 568.6875 291.824219 568.6875 291.75 C 568.6875 291.503906 568.441406 291.503906 568.390625 291.503906 C 568.242188 291.503906 568.121094 291.554688 568.070312 291.75 C 567.851562 292.464844 567.285156 294.210938 565.585938 295.636719 C 563.890625 297.015625 562.339844 297.433594 561.0625 297.433594 C 558.847656 297.433594 556.242188 296.152344 556.242188 292.316406 C 556.242188 290.914062 556.757812 286.929688 559.21875 284.054688 C 560.71875 282.308594 563.03125 281.078125 565.21875 281.078125 C 567.726562 281.078125 569.179688 282.972656 569.179688 285.824219 C 569.179688 286.808594 569.105469 286.832031 569.105469 287.078125 C 569.105469 287.324219 569.375 287.324219 569.472656 287.324219 C 569.792969 287.324219 569.792969 287.277344 569.917969 286.832031 C 570.433594 284.742188 570.949219 282.652344 571.464844 280.5625 Z M 571.464844 280.5625 "/>
<path fill-rule="nonzero" fill="rgb(0%, 0%, 0%)" fill-opacity="1" d="M 472.570312 69.992188 C 472.570312 67.972656 471.765625 66.035156 470.335938 64.605469 C 468.910156 63.179688 466.972656 62.375 464.949219 62.375 C 462.929688 62.375 460.992188 63.179688 459.566406 64.605469 C 458.136719 66.035156 457.332031 67.972656 457.332031 69.992188 C 457.332031 72.011719 458.136719 73.949219 459.566406 75.378906 C 460.992188 76.808594 462.929688 77.609375 464.949219 77.609375 C 466.972656 77.609375 468.910156 76.808594 470.335938 75.378906 C 471.765625 73.949219 472.570312 72.011719 472.570312 69.992188 Z M 472.570312 69.992188 "/>
<path fill-rule="nonzero" fill="rgb(0%, 0%, 0%)" fill-opacity="1" d="M 471.050781 55.507812 C 470.804688 56.464844 470.753906 56.664062 468.8125 56.664062 C 468.394531 56.664062 468.125 56.664062 468.125 57.128906 C 468.125 57.425781 468.34375 57.425781 468.8125 57.425781 C 471.527344 57.425781 474.238281 57.425781 476.953125 57.425781 C 482.070312 57.425781 486.914062 52.234375 486.914062 46.847656 C 486.914062 43.382812 484.824219 40.625 481.132812 40.625 C 478.378906 40.625 475.625 40.625 472.871094 40.625 C 472.402344 40.625 472.132812 40.625 472.132812 41.09375 C 472.132812 41.390625 472.355469 41.390625 472.847656 41.390625 C 473.167969 41.390625 473.609375 41.414062 473.902344 41.4375 C 474.296875 41.488281 474.445312 41.5625 474.445312 41.832031 C 474.445312 41.929688 474.421875 42.003906 474.347656 42.300781 C 473.246094 46.703125 472.148438 51.105469 471.050781 55.507812 Z M 476.363281 42.324219 C 476.585938 41.464844 476.632812 41.390625 477.691406 41.390625 C 478.570312 41.390625 479.445312 41.390625 480.324219 41.390625 C 482.734375 41.390625 484.773438 42.691406 484.773438 45.9375 C 484.773438 47.144531 484.28125 51.175781 482.191406 53.882812 C 481.480469 54.792969 479.535156 56.664062 476.511719 56.664062 C 475.585938 56.664062 474.65625 56.664062 473.730469 56.664062 C 473.386719 56.664062 473.339844 56.664062 473.191406 56.636719 C 472.945312 56.613281 472.871094 56.589844 472.871094 56.390625 C 472.871094 56.316406 472.871094 56.269531 472.992188 55.824219 C 474.117188 51.324219 475.238281 46.824219 476.363281 42.324219 Z M 476.363281 42.324219 "/>
<path fill-rule="nonzero" fill="rgb(0%, 0%, 0%)" fill-opacity="1" d="M 242.011719 70.027344 C 242.011719 68.007812 241.207031 66.070312 239.78125 64.640625 C 238.351562 63.210938 236.414062 62.410156 234.394531 62.410156 C 232.375 62.410156 230.4375 63.210938 229.007812 64.640625 C 227.578125 66.070312 226.777344 68.007812 226.777344 70.027344 C 226.777344 72.046875 227.578125 73.984375 229.007812 75.414062 C 230.4375 76.84375 232.375 77.644531 234.394531 77.644531 C 236.414062 77.644531 238.351562 76.84375 239.78125 75.414062 C 241.207031 73.984375 242.011719 72.046875 242.011719 70.027344 Z M 242.011719 70.027344 "/>
<path fill-rule="nonzero" fill="rgb(0%, 0%, 0%)" fill-opacity="1" d="M 229.386719 51.726562 C 229.4375 51.605469 229.511719 51.433594 229.511719 51.382812 C 229.511719 51.359375 229.511719 51.113281 229.214844 51.113281 C 228.996094 51.113281 228.945312 51.261719 228.894531 51.410156 C 227.296875 55.046875 226.386719 56.695312 222.183594 56.695312 C 220.984375 56.695312 219.789062 56.695312 218.589844 56.695312 C 218.246094 56.695312 218.199219 56.695312 218.050781 56.671875 C 217.804688 56.648438 217.730469 56.621094 217.730469 56.425781 C 217.730469 56.351562 217.730469 56.304688 217.851562 55.859375 C 218.410156 53.621094 218.96875 51.382812 219.527344 49.144531 C 220.335938 49.144531 221.148438 49.144531 221.960938 49.144531 C 224.050781 49.144531 224.050781 49.664062 224.050781 50.277344 C 224.050781 50.449219 224.050781 50.746094 223.878906 51.484375 C 223.828125 51.605469 223.804688 51.679688 223.804688 51.753906 C 223.804688 51.875 223.902344 52.023438 224.125 52.023438 C 224.320312 52.023438 224.394531 51.902344 224.492188 51.53125 C 224.960938 49.613281 225.429688 47.695312 225.894531 45.777344 C 225.894531 45.628906 225.773438 45.507812 225.601562 45.507812 C 225.378906 45.507812 225.332031 45.652344 225.257812 45.949219 C 224.738281 47.816406 224.296875 48.382812 222.035156 48.382812 C 221.265625 48.382812 220.492188 48.382812 219.722656 48.382812 C 220.214844 46.40625 220.707031 44.433594 221.199219 42.457031 C 221.417969 41.59375 221.445312 41.496094 222.527344 41.496094 C 223.683594 41.496094 224.839844 41.496094 225.996094 41.496094 C 228.996094 41.496094 229.734375 42.210938 229.734375 44.226562 C 229.734375 44.816406 229.734375 44.867188 229.632812 45.53125 C 229.632812 45.679688 229.609375 45.851562 229.609375 45.972656 C 229.609375 46.097656 229.683594 46.269531 229.90625 46.269531 C 230.175781 46.269531 230.199219 46.121094 230.25 45.652344 C 230.414062 44.234375 230.578125 42.816406 230.742188 41.398438 C 230.816406 40.734375 230.691406 40.734375 230.078125 40.734375 C 225.9375 40.734375 221.796875 40.734375 217.65625 40.734375 C 217.164062 40.734375 216.917969 40.734375 216.917969 41.226562 C 216.917969 41.496094 217.140625 41.496094 217.609375 41.496094 C 218.515625 41.496094 219.207031 41.496094 219.207031 41.941406 C 219.207031 42.039062 219.207031 42.085938 219.082031 42.53125 C 218 46.867188 216.917969 51.203125 215.835938 55.539062 C 215.589844 56.5 215.542969 56.695312 213.597656 56.695312 C 213.179688 56.695312 212.910156 56.695312 212.910156 57.164062 C 212.910156 57.457031 213.132812 57.457031 213.597656 57.457031 C 217.851562 57.457031 222.109375 57.457031 226.363281 57.457031 C 226.929688 57.457031 226.953125 57.433594 227.125 57.039062 C 227.878906 55.269531 228.632812 53.5 229.386719 51.726562 Z M 229.386719 51.726562 "/>
</svg>
